if (_typeface_js && _typeface_js.loadFace) _typeface_js.loadFace({"glyphs":{"S":{"x_min":104.8125,"x_max":1238.609375,"ha":1371,"o":"m 106 243 b 472 -11 106 23 277 -11 l 842 -11 b 1238 254 1039 -11 1238 6 l 1238 319 b 869 566 1238 490 1129 566 l 475 566 b 230 726 266 566 230 606 b 578 905 230 891 321 905 l 720 905 b 1088 716 1069 905 1086 876 l 1214 716 l 1214 751 b 800 1016 1214 930 1131 1016 l 513 1016 b 104 736 238 1016 104 965 b 645 444 104 469 238 444 l 898 444 b 1113 286 1064 444 1113 412 b 862 100 1113 141 1056 100 l 449 100 b 231 245 283 100 231 147 l 231 316 l 106 316 l 106 243 "},"¦":{"x_min":96.640625,"x_max":205.53125,"ha":308,"o":"m 96 937 l 96 451 l 205 451 l 205 937 l 96 937 m 96 243 l 96 -243 l 205 -243 l 205 243 l 96 243 "},"/":{"x_min":-61,"x_max":565,"ha":514,"o":"m -61 -11 l 53 -11 l 565 1016 l 449 1016 l -61 -11 "},"y":{"x_min":5,"x_max":902,"ha":926,"o":"m 147 -263 b 509 -87 388 -261 437 -233 l 902 708 l 775 708 l 473 81 l 137 708 l 5 708 l 398 -11 l 426 -11 b 147 -166 365 -154 327 -166 l 147 -263 "},"≈":{"x_min":83,"x_max":902.390625,"ha":1008,"o":"m 857 638 b 683 518 804 555 755 518 b 513 575 615 518 577 541 b 319 643 462 601 401 643 b 83 495 223 643 137 587 l 129 451 b 308 572 175 513 225 572 b 473 518 370 572 423 544 b 681 446 559 475 607 446 b 902 593 785 446 850 509 l 857 638 m 857 357 b 684 236 803 273 756 236 b 513 296 612 236 570 265 b 319 362 462 321 402 362 b 83 215 224 362 137 307 l 129 169 b 308 291 175 233 225 291 b 473 237 368 291 421 264 b 681 165 558 194 607 165 b 902 311 786 165 850 229 l 857 357 "},"Ž":{"x_min":56.9375,"x_max":1185.109375,"ha":1268,"o":"m 56 0 l 1185 0 l 1185 111 l 262 111 l 1166 908 l 1166 1005 l 85 1005 l 85 894 l 956 894 l 56 105 l 56 0 m 560 1072 l 680 1072 l 882 1329 l 772 1329 l 620 1136 l 470 1329 l 360 1329 l 560 1072 "},"Á":{"x_min":20,"x_max":1357,"ha":1406,"o":"m 20 0 l 171 0 l 293 212 l 1083 212 l 1205 0 l 1357 0 l 771 1005 l 605 1005 l 20 0 m 1019 323 l 357 323 l 688 894 l 1019 323 m 574 1072 l 665 1072 l 915 1329 l 775 1329 l 574 1072 "},"g":{"x_min":78.9375,"x_max":966.390625,"ha":1099,"o":"m 849 319 b 620 129 849 197 788 129 l 394 129 b 196 341 251 129 194 179 l 196 472 b 402 622 197 588 283 622 l 641 622 b 849 405 805 622 852 537 l 849 319 m 966 708 l 857 708 l 857 581 l 854 581 b 641 719 818 697 729 719 l 392 719 b 78 433 261 719 78 690 l 78 315 b 370 31 78 133 175 31 l 611 31 b 846 141 774 31 822 75 l 849 141 l 849 36 b 525 -158 849 -155 756 -158 l 411 -158 b 209 -40 302 -158 209 -131 l 209 -20 l 100 -20 l 100 -44 b 372 -255 100 -134 157 -255 l 637 -255 b 966 1 782 -255 966 -212 l 966 708 "},"²":{"x_min":65.328125,"x_max":786.71875,"ha":869,"o":"m 65 406 l 786 406 l 786 487 l 160 487 l 160 526 b 323 623 160 590 178 613 l 555 638 b 781 819 718 650 781 670 b 563 1016 781 938 748 1016 l 294 1016 b 68 844 141 1016 68 970 l 68 787 l 163 787 l 163 806 b 308 936 163 926 216 936 l 551 936 b 686 815 665 936 686 895 b 451 708 686 734 676 723 l 277 697 b 65 522 134 687 65 654 l 65 406 "},"–":{"x_min":0,"x_max":680.5625,"ha":694,"o":"m 0 312 l 680 312 l 680 423 l 0 423 l 0 312 "},"ë":{"x_min":78.9375,"x_max":967.75,"ha":1063,"o":"m 850 430 l 196 430 b 435 622 206 591 250 622 l 607 622 b 850 477 797 622 850 550 l 850 430 m 78 279 b 405 -11 78 18 253 -11 l 617 -11 b 967 200 835 -11 967 37 l 967 213 l 850 213 b 637 86 843 105 784 86 l 476 86 b 196 288 272 86 196 127 l 196 333 l 967 333 l 967 412 b 607 719 967 665 816 719 l 419 719 b 78 433 253 719 78 690 l 78 279 m 319 836 l 436 836 l 436 991 l 319 991 l 319 836 m 605 836 l 722 836 l 722 991 l 605 991 l 605 836 "},"ƒ":{"x_min":67.203125,"x_max":1237.8125,"ha":1339,"o":"m 67 -238 b 178 -247 108 -248 150 -247 b 638 84 523 -247 591 -113 l 726 448 l 1021 448 l 1021 545 l 747 545 l 772 647 b 1054 919 830 891 908 919 b 1237 904 1116 919 1169 912 l 1237 1002 b 1036 1016 1169 1012 1153 1016 b 668 715 864 1016 726 954 l 627 545 l 357 545 l 357 448 l 606 448 l 525 125 b 178 -150 479 -59 422 -150 b 67 -136 142 -150 103 -143 l 67 -238 "},"Î":{"x_min":-59.890625,"x_max":462.78125,"ha":411,"o":"m 134 0 l 268 0 l 268 1005 l 134 1005 l 134 0 m -59 1071 l 46 1071 l 200 1265 l 353 1071 l 462 1071 l 257 1328 l 145 1328 l -59 1071 "},"e":{"x_min":78.9375,"x_max":967.75,"ha":1063,"o":"m 850 430 l 196 430 b 435 622 206 591 250 622 l 607 622 b 850 477 797 622 850 550 l 850 430 m 78 279 b 405 -11 78 18 253 -11 l 617 -11 b 967 200 835 -11 967 37 l 967 213 l 850 213 b 637 86 843 105 784 86 l 476 86 b 196 288 272 86 196 127 l 196 333 l 967 333 l 967 412 b 607 719 967 665 816 719 l 419 719 b 78 433 253 719 78 690 l 78 279 "},"Ã":{"x_min":20,"x_max":1357,"ha":1406,"o":"m 20 0 l 171 0 l 293 212 l 1083 212 l 1205 0 l 1357 0 l 771 1005 l 605 1005 l 20 0 m 1019 323 l 357 323 l 688 894 l 1019 323 m 903 1279 b 824 1187 894 1236 873 1187 b 700 1230 787 1187 745 1208 b 564 1272 657 1251 610 1272 b 405 1091 480 1272 409 1179 l 473 1091 b 552 1183 482 1134 503 1183 b 676 1141 589 1183 632 1163 b 812 1098 719 1119 767 1098 b 971 1279 896 1098 967 1191 l 903 1279 "},"J":{"x_min":35.390625,"x_max":954.140625,"ha":1099,"o":"m 35 259 b 360 -11 35 70 126 -11 l 613 -11 b 954 281 856 -11 954 50 l 954 1005 l 820 1005 l 820 255 b 602 100 820 126 756 100 l 370 100 b 160 291 198 100 160 133 l 160 370 l 35 370 l 35 259 "},"»":{"x_min":109,"x_max":598,"ha":721,"o":"m 109 154 l 222 154 l 370 368 l 222 581 l 109 581 l 257 368 l 109 154 m 336 154 l 449 154 l 598 368 l 449 581 l 336 581 l 484 368 l 336 154 "},"∆":{"x_min":51.96875,"x_max":1112.28125,"ha":1188,"o":"m 51 0 l 1112 0 l 1112 76 l 652 1019 l 514 1019 l 51 76 l 51 0 m 171 86 l 464 690 b 573 931 495 759 556 891 l 581 931 b 705 659 604 870 674 730 l 981 86 l 171 86 "},"©":{"x_min":40.828125,"x_max":1048.0625,"ha":1111,"o":"m 706 415 b 563 288 695 331 641 288 b 385 501 455 288 385 380 b 560 719 385 629 447 719 b 706 601 634 719 691 675 l 805 601 b 559 808 786 734 684 808 b 276 504 381 808 276 680 b 563 200 276 331 387 200 b 809 415 684 200 786 279 l 706 415 m 40 502 b 544 -11 40 219 266 -11 b 1048 502 822 -11 1048 219 b 544 1016 1048 786 822 1016 b 40 502 266 1016 40 786 m 136 502 b 544 919 136 733 318 919 b 952 502 770 919 952 733 b 544 86 952 272 770 86 b 136 502 318 86 136 272 "},"˘":{"x_min":-76,"x_max":446.671875,"ha":378,"o":"m -76 1061 b 174 825 -62 915 30 825 b 446 1061 324 825 430 902 l 379 1061 b 186 913 355 959 288 913 b -5 1061 87 913 8 958 l -76 1061 "},"≥":{"x_min":88.46875,"x_max":895.609375,"ha":1008,"o":"m 98 915 l 98 833 l 812 515 l 812 512 l 98 194 l 98 112 l 895 476 l 895 551 l 98 915 m 895 -23 l 895 47 l 88 47 l 88 -23 l 895 -23 "},"ò":{"x_min":87.109375,"x_max":1022.203125,"ha":1132,"o":"m 87 276 b 470 -11 87 43 249 -11 l 638 -11 b 1022 276 860 -11 1022 43 l 1022 431 b 638 719 1022 665 860 719 l 470 719 b 87 431 249 719 87 665 l 87 276 m 905 283 b 673 86 905 118 809 86 l 435 86 b 204 283 299 86 204 118 l 204 425 b 435 622 204 590 299 622 l 673 622 b 905 425 809 622 905 590 l 905 283 m 578 816 l 669 816 l 468 1073 l 328 1073 l 578 816 "},"^":{"x_min":82,"x_max":735,"ha":833,"o":"m 82 444 l 190 444 l 408 894 l 626 444 l 735 444 l 464 1005 l 352 1005 l 82 444 "},"«":{"x_min":109.09375,"x_max":598,"ha":721,"o":"m 484 154 l 598 154 l 449 368 l 598 581 l 484 581 l 336 368 l 484 154 m 257 154 l 370 154 l 222 368 l 370 581 l 257 581 l 109 368 l 257 154 "},"D":{"x_min":122.5,"x_max":1339.328125,"ha":1474,"o":"m 1205 448 b 932 111 1205 147 1094 111 l 255 111 l 255 894 l 954 894 b 1205 551 1117 894 1205 841 l 1205 448 m 122 0 l 914 0 b 1339 502 1249 0 1339 133 b 918 1005 1339 900 1249 1005 l 122 1005 l 122 0 "},"∙":{"x_min":227.3125,"x_max":428.75,"ha":669,"o":"m 328 520 b 227 418 273 520 227 472 b 328 315 227 362 273 315 b 428 418 382 315 428 362 b 328 520 428 473 382 520 "},"ł":{"x_min":20.421875,"x_max":349.8125,"ha":378,"o":"m 126 0 l 243 0 l 243 536 l 349 619 l 349 726 l 243 643 l 243 1005 l 126 1005 l 126 551 l 20 466 l 20 359 l 126 444 l 126 0 "},"ÿ":{"x_min":5.4375,"x_max":902.421875,"ha":926,"o":"m 148 -263 b 510 -87 389 -261 438 -233 l 902 708 l 775 708 l 473 81 l 137 708 l 5 708 l 398 -11 l 427 -11 b 148 -166 366 -154 328 -166 l 148 -263 m 253 836 l 370 836 l 370 991 l 253 991 l 253 836 m 539 836 l 656 836 l 656 991 l 539 991 l 539 836 "},"Ł":{"x_min":59.890625,"x_max":1029,"ha":1063,"o":"m 130 0 l 1029 0 l 1029 111 l 264 111 l 264 459 l 604 694 l 604 805 l 264 570 l 264 1005 l 130 1005 l 130 494 l 59 445 l 59 334 l 130 383 l 130 0 "},"í":{"x_min":70.78125,"x_max":412.421875,"ha":378,"o":"m 126 0 l 243 0 l 243 708 l 126 708 l 126 0 m 70 816 l 161 816 l 412 1073 l 272 1073 l 70 816 "},"ˆ":{"x_min":-76,"x_max":447,"ha":378,"o":"m -76 816 l 30 816 l 184 1010 l 338 816 l 447 816 l 241 1073 l 129 1073 l -76 816 "},"w":{"x_min":9.78125,"x_max":1409,"ha":1447,"o":"m 325 0 l 487 0 l 709 611 l 931 0 l 1093 0 l 1409 708 l 1285 708 l 1014 97 l 793 708 l 625 708 l 404 97 l 133 708 l 9 708 l 325 0 "},"$":{"x_min":89.828125,"x_max":1222.28125,"ha":1339,"o":"m 706 100 l 706 444 l 879 444 b 1097 286 1046 444 1097 412 b 843 100 1097 141 1038 100 l 706 100 m 597 566 l 462 566 b 215 734 253 566 215 606 b 566 905 215 895 307 905 l 597 905 l 597 566 m 597 100 l 436 100 b 216 248 269 100 216 148 l 216 316 l 91 316 l 91 243 b 457 -11 91 23 262 -11 l 597 -11 l 597 -80 l 706 -80 l 706 -11 l 826 -11 b 1222 254 1023 -11 1222 6 l 1222 319 b 853 566 1222 490 1113 566 l 706 566 l 706 905 b 1072 716 1050 905 1071 880 l 1197 716 l 1197 751 b 784 1016 1197 930 1114 1016 l 706 1016 l 706 1081 l 597 1081 l 597 1016 l 498 1016 b 89 736 223 1016 89 965 b 597 444 89 476 216 445 l 597 100 "},"∫":{"x_min":6.8125,"x_max":559.421875,"ha":583,"o":"m 559 1180 b 466 1205 543 1191 502 1205 b 319 1152 416 1205 363 1193 b 230 854 254 1095 230 1005 b 255 133 230 633 255 361 b 190 -116 255 -18 227 -76 b 110 -147 171 -136 138 -147 b 27 -125 74 -147 42 -133 l 6 -198 b 121 -226 27 -211 77 -226 b 276 -152 181 -226 240 -201 b 349 129 311 -108 349 -25 b 323 841 349 355 323 622 b 385 1097 323 972 340 1052 b 473 1129 408 1122 446 1129 b 540 1111 495 1129 526 1120 l 559 1180 "},"\\":{"x_min":-61.109375,"x_max":565,"ha":514,"o":"m 450 -11 l 565 -11 l 54 1016 l -61 1016 l 450 -11 "},"Ì":{"x_min":-25.859375,"x_max":315.78125,"ha":411,"o":"m 134 0 l 268 0 l 268 1005 l 134 1005 l 134 0 m 224 1072 l 315 1072 l 114 1329 l -25 1329 l 224 1072 "},"µ":{"x_min":110.25,"x_max":966.390625,"ha":1099,"o":"m 857 0 l 966 0 l 966 708 l 849 708 l 849 305 b 513 86 849 138 786 86 l 483 86 b 227 258 255 86 227 154 l 227 708 l 110 708 l 110 -247 l 227 -247 l 227 23 b 398 -11 262 2 321 -11 l 574 -11 b 854 122 720 -11 811 12 l 857 122 l 857 0 "},"Ç":{"x_min":104.8125,"x_max":1293.0625,"ha":1406,"o":"m 104 365 b 455 -11 104 110 189 -11 l 675 -11 l 570 -155 l 598 -180 b 673 -166 626 -175 649 -166 b 763 -241 717 -166 763 -189 b 646 -323 763 -305 696 -323 b 532 -297 609 -323 567 -314 l 506 -350 b 671 -387 558 -372 613 -387 b 872 -236 762 -387 872 -348 b 725 -103 872 -147 807 -103 b 666 -114 705 -103 683 -108 l 664 -111 l 744 -11 l 959 -11 b 1293 269 1235 -11 1293 87 l 1293 337 l 1167 337 l 1167 274 b 936 99 1167 138 1116 99 l 469 99 b 238 313 341 99 238 138 l 238 691 b 469 905 238 866 341 905 l 932 905 b 1158 726 1054 905 1158 897 l 1158 680 l 1275 680 l 1275 766 b 966 1016 1275 901 1208 1016 l 455 1016 b 104 640 189 1016 104 894 l 104 365 "},"’":{"x_min":108.890625,"x_max":261.328125,"ha":378,"o":"m 261 1005 l 117 1005 l 117 825 l 168 825 b 108 750 168 766 156 750 l 108 669 b 261 833 240 669 261 734 l 261 1005 "},"-":{"x_min":111.609375,"x_max":492.71875,"ha":617,"o":"m 111 312 l 492 312 l 492 423 l 111 423 l 111 312 "},"Q":{"x_min":104.140625,"x_max":1457.078125,"ha":1510,"o":"m 1397 43 l 1457 138 l 1357 202 b 1374 365 1368 248 1374 302 l 1374 640 b 1022 1016 1374 894 1289 1016 l 455 1016 b 104 640 188 1016 104 894 l 104 365 b 455 -11 104 111 188 -11 l 1022 -11 b 1310 98 1168 -11 1258 25 l 1397 43 m 1240 279 l 865 522 l 805 426 l 1199 170 b 1009 100 1161 115 1111 100 l 468 100 b 237 313 340 100 237 138 l 237 691 b 468 905 237 866 340 905 l 1009 905 b 1240 691 1137 905 1240 866 l 1240 279 "},"M":{"x_min":122.5,"x_max":1690.5,"ha":1850,"o":"m 122 0 l 255 0 l 255 883 l 258 883 l 858 0 l 954 0 l 1554 883 l 1557 883 l 1557 0 l 1690 0 l 1690 1005 l 1482 1005 l 906 162 l 330 1005 l 122 1005 l 122 0 "},"C":{"x_min":104.8125,"x_max":1293.0625,"ha":1406,"o":"m 104 365 b 455 -11 104 111 189 -11 l 959 -11 b 1293 269 1235 -11 1293 87 l 1293 337 l 1167 337 l 1167 275 b 936 100 1167 138 1116 100 l 469 100 b 238 313 341 100 238 138 l 238 691 b 469 905 238 866 341 905 l 932 905 b 1158 726 1054 905 1158 897 l 1158 680 l 1275 680 l 1275 766 b 966 1016 1275 901 1208 1016 l 455 1016 b 104 640 189 1016 104 894 l 104 365 "},"œ":{"x_min":65.328125,"x_max":1749.03125,"ha":1851,"o":"m 1631 430 l 984 430 b 1216 622 994 591 1038 622 l 1388 622 b 1631 477 1578 622 1631 550 l 1631 430 m 65 276 b 449 -11 65 43 227 -11 l 643 -11 b 931 115 743 -11 884 -11 b 1151 -11 951 70 1031 -11 l 1399 -11 b 1749 200 1617 -11 1749 37 l 1749 213 l 1631 213 b 1418 86 1625 105 1565 86 l 1264 86 b 984 288 1060 86 984 127 l 984 333 l 1749 333 l 1749 412 b 1388 719 1749 665 1597 719 l 1268 719 b 931 608 1049 719 984 684 b 566 719 857 715 762 719 l 449 719 b 65 431 227 719 65 665 l 65 276 m 867 283 b 612 86 867 118 770 86 l 413 86 b 182 283 277 86 182 118 l 182 425 b 413 622 182 590 277 622 l 604 622 b 867 425 781 622 867 590 l 867 283 "},"!":{"x_min":251.8125,"x_max":404.25,"ha":669,"o":"m 251 0 l 404 0 l 404 172 l 251 172 l 251 0 m 273 291 l 382 291 l 382 1005 l 273 1005 l 273 291 "},"ç":{"x_min":78.9375,"x_max":939.171875,"ha":1029,"o":"m 78 274 b 370 -11 78 17 265 -11 l 490 -11 l 385 -155 l 413 -180 b 488 -166 441 -175 464 -166 b 578 -241 532 -166 578 -189 b 461 -323 578 -305 511 -323 b 347 -297 424 -323 382 -314 l 321 -350 b 485 -387 372 -372 428 -387 b 687 -236 577 -387 687 -348 b 540 -103 687 -147 622 -103 b 481 -114 519 -103 498 -108 l 479 -111 l 559 -11 l 634 -11 b 939 237 852 -11 939 58 l 939 258 l 830 258 l 830 234 b 630 85 830 119 739 85 l 432 85 b 196 280 291 85 196 121 l 196 428 b 409 621 196 605 299 621 l 624 621 b 818 476 741 621 818 594 l 818 459 l 926 459 l 926 478 b 623 719 926 628 841 719 l 427 719 b 78 433 255 719 78 690 l 78 274 "},"È":{"x_min":130.671875,"x_max":1103.859375,"ha":1200,"o":"m 130 0 l 1103 0 l 1103 111 l 264 111 l 264 462 l 1065 462 l 1065 573 l 264 573 l 264 894 l 1098 894 l 1098 1005 l 130 1005 l 130 0 m 611 1072 l 702 1072 l 500 1329 l 360 1329 l 611 1072 "},"ﬁ":{"x_min":38.109375,"x_max":925.5625,"ha":1099,"o":"m 189 0 l 306 0 l 306 611 l 637 611 l 637 708 l 306 708 l 306 795 b 427 908 306 858 340 908 l 637 908 l 637 1005 l 417 1005 b 189 770 289 1005 189 938 l 189 708 l 38 708 l 38 611 l 189 611 l 189 0 m 808 0 l 925 0 l 925 708 l 808 708 l 808 0 m 808 875 l 925 875 l 925 1005 l 808 1005 l 808 875 "},"{":{"x_min":62.609375,"x_max":441,"ha":514,"o":"m 62 454 b 181 300 118 452 181 398 l 181 183 b 334 0 181 62 269 0 l 441 0 l 441 97 l 366 97 b 298 208 310 97 298 154 l 298 319 b 171 501 298 461 208 494 l 171 504 b 298 679 208 511 298 551 l 298 797 b 366 908 298 851 310 908 l 441 908 l 441 1005 l 334 1005 b 181 822 269 1005 181 943 l 181 698 b 62 551 181 606 118 552 l 62 454 "},"X":{"x_min":29,"x_max":1349,"ha":1406,"o":"m 29 0 l 223 0 l 689 466 l 1161 0 l 1349 0 l 806 531 l 1287 1005 l 1104 1005 l 689 601 l 279 1005 l 90 1005 l 571 531 l 29 0 "},"ô":{"x_min":87.109375,"x_max":1022.203125,"ha":1132,"o":"m 87 276 b 470 -10 87 43 249 -10 l 638 -10 b 1022 276 860 -10 1022 43 l 1022 432 b 638 719 1022 665 860 719 l 470 719 b 87 432 249 719 87 665 l 87 276 m 905 283 b 673 86 905 118 809 86 l 435 86 b 204 283 299 86 204 118 l 204 425 b 435 622 204 590 299 622 l 673 622 b 905 425 809 622 905 590 l 905 283 m 294 816 l 400 816 l 553 1010 l 707 816 l 816 816 l 611 1073 l 499 1073 l 294 816 "},"¼":{"x_min":196,"x_max":1769.453125,"ha":2006,"o":"m 1014 123 l 1572 123 l 1572 0 l 1667 0 l 1667 123 l 1769 123 l 1769 204 l 1667 204 l 1667 602 l 1554 602 l 1014 223 l 1014 123 m 1572 204 l 1122 204 l 1122 206 l 1572 522 l 1572 204 m 462 -11 l 575 -11 l 1366 1016 l 1253 1016 l 462 -11 m 464 406 l 559 406 l 559 1009 l 455 1009 l 196 813 l 245 745 l 464 912 l 464 406 "},"#":{"x_min":294.953125,"x_max":1016.046875,"ha":1339,"o":"m 748 405 l 538 405 l 564 600 l 773 600 l 748 405 m 433 405 l 294 405 l 294 308 l 420 308 l 379 0 l 485 0 l 526 308 l 734 308 l 693 0 l 799 0 l 840 308 l 977 308 l 977 405 l 852 405 l 878 600 l 1016 600 l 1016 697 l 890 697 l 931 1005 l 826 1005 l 786 697 l 576 697 l 617 1005 l 512 1005 l 471 697 l 334 697 l 334 600 l 459 600 l 433 405 "},"Ê":{"x_min":130.671875,"x_max":1103.859375,"ha":1200,"o":"m 130 0 l 1103 0 l 1103 110 l 264 110 l 264 462 l 1065 462 l 1065 573 l 264 573 l 264 894 l 1098 894 l 1098 1005 l 130 1005 l 130 0 m 326 1071 l 432 1071 l 586 1265 l 740 1071 l 849 1071 l 643 1328 l 532 1328 l 326 1071 "},")":{"x_min":63.96875,"x_max":420.578125,"ha":514,"o":"m 63 -11 l 153 -11 b 420 372 392 -11 420 126 l 420 705 b 153 1016 420 984 292 1016 l 63 1016 l 63 905 l 148 905 b 295 745 262 905 295 861 l 295 315 b 148 100 295 127 250 100 l 63 100 l 63 -11 "},"Å":{"x_min":20.421875,"x_max":1357.03125,"ha":1406,"o":"m 20 0 l 171 0 l 294 212 l 1083 212 l 1205 0 l 1357 0 l 771 1005 l 605 1005 l 20 0 m 1019 323 l 357 323 l 688 894 l 1019 323 m 583 1259 b 688 1366 583 1319 630 1366 b 793 1259 747 1366 793 1319 b 688 1152 793 1200 747 1152 b 583 1259 630 1152 583 1200 m 504 1259 b 688 1072 504 1155 586 1072 b 872 1259 790 1072 872 1155 b 688 1447 872 1363 790 1447 b 504 1259 586 1447 504 1363 "},"ø":{"x_min":43.421875,"x_max":1065.578125,"ha":1132,"o":"m 231 163 b 204 283 213 191 204 230 l 204 424 b 435 621 204 590 299 621 l 673 621 b 819 596 730 621 781 616 l 231 163 m 904 283 b 673 86 904 117 809 86 l 435 86 b 289 112 376 86 326 91 l 876 545 b 904 424 895 519 904 478 l 904 283 m 86 -38 l 198 44 b 470 -11 266 2 361 -11 l 638 -11 b 1022 276 860 -11 1022 43 l 1022 431 b 968 613 1022 510 1002 569 l 1065 684 l 1022 746 l 910 664 b 638 719 843 705 748 719 l 470 719 b 86 431 248 719 86 664 l 86 276 b 140 95 86 197 104 138 l 43 23 l 86 -38 "},"â":{"x_min":73.5,"x_max":944.609375,"ha":1063,"o":"m 827 0 l 944 0 l 944 475 b 579 719 944 686 797 719 l 394 719 b 104 537 185 719 104 666 l 104 503 l 221 503 l 221 528 b 397 622 221 586 250 622 l 568 622 b 827 478 748 622 827 605 l 827 344 l 824 344 b 577 429 784 412 729 429 l 389 429 b 73 248 185 429 73 410 l 73 201 b 296 -10 73 68 119 -10 l 577 -10 b 824 71 756 -10 793 7 l 827 71 l 827 0 m 827 190 b 533 86 827 101 745 86 l 378 86 b 190 198 217 86 190 119 l 190 221 b 383 332 190 310 232 332 l 563 332 b 827 222 743 332 827 319 l 827 190 m 259 816 l 366 816 l 519 1010 l 673 816 l 782 816 l 577 1073 l 465 1073 l 259 816 "},"}":{"x_min":62.609375,"x_max":441,"ha":514,"o":"m 62 0 l 168 0 b 322 183 234 0 322 62 l 322 306 b 441 454 322 398 385 452 l 441 551 b 322 705 385 552 322 606 l 322 822 b 168 1005 322 943 234 1005 l 62 1005 l 62 908 l 137 908 b 205 797 193 908 205 851 l 205 686 b 332 504 205 544 295 511 l 332 501 b 205 326 295 494 205 454 l 205 208 b 137 97 205 154 193 97 l 62 97 l 62 0 "},"‰":{"x_min":14.96875,"x_max":1799.390625,"ha":1851,"o":"m 428 688 b 265 579 428 583 411 579 b 102 688 119 579 102 583 l 102 816 b 265 926 102 922 119 926 b 428 816 411 926 428 922 l 428 688 m 396 -12 l 484 -12 l 818 1015 l 729 1015 l 396 -12 m 1116 186 b 952 76 1116 80 1098 76 b 789 186 807 76 789 80 l 789 313 b 952 423 789 419 807 423 b 1116 313 1098 423 1116 419 l 1116 186 m 265 490 b 515 752 484 490 515 494 b 265 1015 515 1011 483 1015 b 14 752 46 1015 14 1011 b 265 490 14 494 47 490 m 952 -12 b 1204 250 1171 -12 1203 -8 l 1203 250 b 952 512 1203 508 1170 512 b 702 250 733 512 702 508 b 952 -12 702 -8 735 -12 m 1547 -12 b 1799 250 1766 -12 1798 -8 l 1798 250 b 1547 512 1798 508 1765 512 b 1297 250 1328 512 1297 508 b 1547 -12 1297 -8 1329 -12 m 1710 186 b 1547 76 1710 80 1693 76 b 1384 186 1401 76 1384 80 l 1384 313 b 1547 423 1384 419 1401 423 b 1710 313 1693 423 1710 419 l 1710 186 "},"Ä":{"x_min":20.421875,"x_max":1357.03125,"ha":1406,"o":"m 20 0 l 171 0 l 294 212 l 1083 212 l 1205 0 l 1357 0 l 771 1005 l 605 1005 l 20 0 m 1019 323 l 357 323 l 688 894 l 1019 323 m 487 1091 l 604 1091 l 604 1247 l 487 1247 l 487 1091 m 773 1091 l 890 1091 l 890 1247 l 773 1247 l 773 1091 "},"¸":{"x_min":16.328125,"x_max":382.46875,"ha":378,"o":"m 16 -350 b 181 -387 68 -372 123 -387 b 382 -236 272 -387 382 -348 b 235 -103 382 -147 317 -103 b 176 -114 215 -103 193 -108 l 174 -111 l 262 0 l 193 0 l 80 -155 l 108 -180 b 183 -166 136 -175 159 -166 b 273 -241 227 -166 273 -189 b 156 -323 273 -305 206 -323 b 42 -297 119 -323 77 -314 l 16 -350 "},"a":{"x_min":73.5,"x_max":944.609375,"ha":1063,"o":"m 827 0 l 944 0 l 944 475 b 579 719 944 686 797 719 l 394 719 b 104 537 185 719 104 666 l 104 502 l 221 502 l 221 527 b 397 622 221 586 250 622 l 568 622 b 827 477 748 622 827 605 l 827 344 l 824 344 b 577 429 784 412 729 429 l 389 429 b 73 248 185 429 73 409 l 73 201 b 296 -11 73 68 119 -11 l 577 -11 b 824 70 756 -11 793 6 l 827 70 l 827 0 m 827 190 b 533 86 827 101 745 86 l 378 86 b 190 198 217 86 190 119 l 190 220 b 383 331 190 309 232 331 l 563 331 b 827 222 743 331 827 319 l 827 190 "},"—":{"x_min":0,"x_max":1361.109375,"ha":1389,"o":"m 0 312 l 1361 312 l 1361 423 l 0 423 l 0 312 "},"=":{"x_min":63.96875,"x_max":752.703125,"ha":833,"o":"m 63 447 l 752 447 l 752 544 l 63 544 l 63 447 m 63 158 l 752 158 l 752 255 l 63 255 l 63 158 "},"N":{"x_min":122.5,"x_max":1357.03125,"ha":1510,"o":"m 122 0 l 255 0 l 255 883 l 1158 0 l 1357 0 l 1357 1005 l 1223 1005 l 1223 122 l 321 1005 l 122 1005 l 122 0 "},"˚":{"x_min":1.359375,"x_max":368.859375,"ha":378,"o":"m 80 1004 b 185 1111 80 1063 126 1111 b 289 1004 243 1111 289 1063 b 185 897 289 944 243 897 b 80 1004 126 897 80 944 m 1 1004 b 185 816 1 900 83 816 b 368 1004 287 816 368 900 b 185 1191 368 1108 287 1191 b 1 1004 83 1191 1 1108 "},"ú":{"x_min":110.25,"x_max":966.390625,"ha":1099,"o":"m 857 0 l 966 0 l 966 708 l 849 708 l 849 305 b 513 86 849 138 786 86 l 483 86 b 227 258 255 86 227 154 l 227 708 l 110 708 l 110 229 b 398 -11 110 101 179 -11 l 574 -11 b 854 122 720 -11 811 12 l 857 122 l 857 0 m 424 816 l 515 816 l 766 1073 l 626 1073 l 424 816 "},"⁄":{"x_min":-301,"x_max":603,"ha":308,"o":"m -301 -11 l -188 -11 l 603 1016 l 490 1016 l -301 -11 "},"2":{"x_min":99.359375,"x_max":1212.75,"ha":1339,"o":"m 99 0 l 1212 0 l 1212 111 l 224 111 l 224 200 b 571 366 224 333 258 345 l 775 380 b 1199 687 1099 402 1199 419 b 865 1016 1199 886 1148 1016 l 449 1016 b 103 729 216 1016 103 940 l 103 634 l 228 634 l 228 690 b 453 905 228 890 311 905 l 867 905 b 1073 694 1043 905 1073 840 b 865 502 1073 566 1057 516 l 427 470 b 99 177 204 454 99 397 l 99 0 "},"ü":{"x_min":110.25,"x_max":966.390625,"ha":1099,"o":"m 857 0 l 966 0 l 966 708 l 849 708 l 849 305 b 513 86 849 138 786 86 l 483 86 b 227 258 255 86 227 154 l 227 708 l 110 708 l 110 229 b 398 -11 110 101 179 -11 l 574 -11 b 854 122 720 -11 811 12 l 857 122 l 857 0 m 337 836 l 454 836 l 454 991 l 337 991 l 337 836 m 623 836 l 740 836 l 740 991 l 623 991 l 623 836 "},"¯":{"x_min":-83.03125,"x_max":453.25,"ha":378,"o":"m -83 884 l 453 884 l 453 973 l -83 973 l -83 884 "},"Z":{"x_min":56.9375,"x_max":1185.296875,"ha":1268,"o":"m 56 0 l 1185 0 l 1185 111 l 262 111 l 1166 908 l 1166 1005 l 85 1005 l 85 894 l 956 894 l 56 105 l 56 0 "},"u":{"x_min":110.25,"x_max":966.390625,"ha":1099,"o":"m 857 0 l 966 0 l 966 708 l 849 708 l 849 305 b 513 86 849 138 786 86 l 483 86 b 227 258 255 86 227 154 l 227 708 l 110 708 l 110 229 b 398 -11 110 101 179 -11 l 574 -11 b 854 122 720 -11 811 12 l 857 122 l 857 0 "},"˜":{"x_min":-98,"x_max":468.21875,"ha":378,"o":"m 400 1023 b 321 931 390 980 370 931 b 197 975 284 931 242 952 b 61 1016 153 995 107 1016 b -98 836 -23 1016 -93 923 l -29 836 b 49 927 -20 879 0 927 b 172 886 85 927 129 908 b 308 843 216 863 264 843 b 468 1023 393 843 464 936 l 400 1023 "},"Ó":{"x_min":104.8125,"x_max":1374.71875,"ha":1510,"o":"m 1241 313 b 1009 100 1241 138 1137 100 l 469 100 b 238 313 341 100 238 138 l 238 691 b 469 905 238 866 341 905 l 1009 905 b 1241 691 1137 905 1241 866 l 1241 313 m 104 365 b 455 -11 104 111 189 -11 l 1023 -11 b 1374 365 1290 -11 1374 111 l 1374 640 b 1023 1016 1374 894 1290 1016 l 455 1016 b 104 640 189 1016 104 894 l 104 365 m 626 1072 l 717 1072 l 967 1329 l 827 1329 l 626 1072 "},"k":{"x_min":110.25,"x_max":965.03125,"ha":994,"o":"m 110 0 l 227 0 l 227 343 l 277 343 l 779 0 l 962 0 l 965 2 l 394 391 l 873 705 l 871 708 l 688 708 l 284 440 l 227 440 l 227 1005 l 110 1005 l 110 0 "},"ˇ":{"x_min":-75.671875,"x_max":447,"ha":378,"o":"m 124 817 l 244 817 l 447 1074 l 336 1074 l 184 881 l 34 1074 l -75 1074 l 124 817 "},"Ù":{"x_min":130.671875,"x_max":1287.609375,"ha":1447,"o":"m 130 252 b 481 -11 130 48 231 -11 l 936 -11 b 1287 252 1186 -11 1287 48 l 1287 1005 l 1154 1005 l 1154 254 b 940 100 1154 156 1121 100 l 477 100 b 264 254 296 100 264 156 l 264 1005 l 130 1005 l 130 252 m 732 1072 l 823 1072 l 622 1329 l 481 1329 l 732 1072 "},"Ÿ":{"x_min":24.5,"x_max":1287.609375,"ha":1339,"o":"m 589 0 l 722 0 l 722 425 l 1287 1005 l 1107 1005 l 656 538 l 204 1005 l 24 1005 l 589 425 l 589 0 m 454 1091 l 571 1091 l 571 1247 l 454 1247 l 454 1091 m 740 1091 l 857 1091 l 857 1247 l 740 1247 l 740 1091 "},"€":{"x_min":14.96875,"x_max":1283.53125,"ha":1339,"o":"m 1283 895 b 950 1016 1188 998 1094 1016 l 543 1016 b 191 669 287 1016 198 904 l 69 669 l 14 565 l 191 565 l 191 466 l 69 466 l 14 362 l 191 362 b 543 -11 191 109 277 -11 l 955 -11 b 1242 79 1057 -11 1165 12 l 1242 222 b 954 100 1184 145 1072 100 l 548 100 b 317 313 420 100 317 138 l 317 362 l 1014 362 l 1068 466 l 317 466 l 317 565 l 1117 565 l 1169 669 l 317 669 l 317 691 b 548 905 317 866 420 905 l 928 905 b 1226 783 1027 905 1152 895 l 1283 895 "},"¢":{"x_min":225.9375,"x_max":1086.171875,"ha":1339,"o":"m 541 87 b 343 280 421 94 343 137 l 343 429 b 556 622 343 605 446 622 l 692 622 l 541 87 m 464 -184 l 567 -184 l 616 -11 l 781 -11 b 1086 237 999 -11 1086 58 l 1086 258 l 977 258 l 977 237 b 777 86 977 127 891 86 l 643 86 l 794 620 b 965 476 899 618 965 584 l 965 459 l 1073 459 l 1073 479 b 822 718 1073 622 989 711 l 872 893 l 769 893 l 720 719 l 539 719 b 225 433 408 719 225 690 l 225 275 b 513 -11 225 22 406 -9 l 464 -184 "},"Ω":{"x_min":92.5625,"x_max":1238.609375,"ha":1360,"o":"m 368 84 l 92 84 l 92 0 l 529 0 l 529 63 b 234 506 379 130 234 284 b 671 922 234 729 408 922 b 1098 512 944 922 1098 704 b 801 63 1098 273 951 131 l 801 0 l 1238 0 l 1238 84 l 958 84 l 958 88 b 1214 523 1086 161 1214 308 b 668 1005 1214 772 994 1005 b 117 522 359 1005 117 798 b 368 88 117 313 239 166 l 368 84 "},"ß":{"x_min":119.78125,"x_max":1003.140625,"ha":1132,"o":"m 119 0 l 236 0 l 236 597 b 532 927 236 880 236 927 b 841 763 749 927 841 913 b 567 590 841 600 809 590 l 450 590 l 450 501 l 612 501 b 886 293 815 501 886 484 b 643 86 886 91 819 86 b 446 100 577 86 510 93 l 446 -1 b 654 -11 502 -4 558 -11 b 1003 241 862 -11 1003 11 l 1003 319 b 826 551 1003 425 975 529 l 826 554 b 958 733 916 581 958 631 l 958 775 b 619 1016 958 963 834 1016 l 411 1016 b 119 770 223 1016 119 923 l 119 0 "},"é":{"x_min":78.9375,"x_max":967.75,"ha":1063,"o":"m 850 430 l 196 430 b 435 622 206 591 250 622 l 607 622 b 850 477 797 622 850 550 l 850 430 m 78 279 b 405 -11 78 18 253 -11 l 617 -11 b 967 200 835 -11 967 37 l 967 213 l 850 213 b 637 86 843 105 784 86 l 476 86 b 196 288 272 86 196 127 l 196 333 l 967 333 l 967 412 b 607 719 967 665 816 719 l 419 719 b 78 433 253 719 78 690 l 78 279 m 406 816 l 498 816 l 748 1073 l 608 1073 l 406 816 "},"s":{"x_min":84.390625,"x_max":956.859375,"ha":1063,"o":"m 84 201 b 419 -11 84 -11 246 -11 l 634 -11 b 956 194 777 -11 956 -4 l 956 197 b 661 406 956 388 837 406 l 352 406 b 210 498 230 406 210 440 l 210 525 b 415 622 210 605 247 622 l 619 622 b 818 511 747 622 818 619 l 818 504 l 926 504 l 926 541 b 626 719 926 641 890 719 l 446 719 b 93 540 157 719 93 655 l 93 498 b 319 309 93 363 155 309 l 680 309 b 839 204 820 309 839 272 l 839 198 b 608 86 839 93 784 86 l 357 86 b 193 209 238 86 193 122 l 193 244 l 84 244 l 84 201 "},"B":{"x_min":130.671875,"x_max":1271.28125,"ha":1406,"o":"m 1137 245 b 969 111 1137 156 1092 111 l 264 111 l 264 462 l 948 462 b 1137 318 1069 462 1137 443 l 1137 245 m 1099 697 b 952 573 1099 597 1024 573 l 264 573 l 264 894 l 959 894 b 1099 788 1000 894 1099 880 l 1099 697 m 130 0 l 985 0 b 1271 213 1148 0 1271 73 l 1271 333 b 1073 531 1271 486 1178 526 l 1073 537 b 1233 695 1193 550 1233 623 l 1233 781 b 971 1005 1233 897 1176 1005 l 130 1005 l 130 0 "},"…":{"x_min":151.078125,"x_max":1210.03125,"ha":1389,"o":"m 151 0 l 303 0 l 303 172 l 151 172 l 151 0 m 604 0 l 756 0 l 756 172 l 604 172 l 604 0 m 1057 0 l 1210 0 l 1210 172 l 1057 172 l 1057 0 "},"?":{"x_min":63.96875,"x_max":996.328125,"ha":1099,"o":"m 63 680 l 181 680 l 181 770 b 522 919 181 919 264 919 b 879 740 845 919 879 901 b 695 548 879 588 850 577 b 413 333 460 504 413 481 l 413 306 l 522 306 l 522 337 b 680 440 522 413 634 431 b 996 725 899 479 996 493 b 499 1016 996 1002 888 1016 b 63 791 215 1016 63 1016 l 63 680 m 392 0 l 544 0 l 544 172 l 392 172 l 392 0 "},"H":{"x_min":130.671875,"x_max":1287.609375,"ha":1447,"o":"m 130 0 l 264 0 l 264 462 l 1154 462 l 1154 0 l 1287 0 l 1287 1005 l 1154 1005 l 1154 573 l 264 573 l 264 1005 l 130 1005 l 130 0 "},"î":{"x_min":-76.21875,"x_max":446.4375,"ha":378,"o":"m 126 0 l 243 0 l 243 708 l 126 708 l 126 0 m -76 816 l 29 816 l 183 1010 l 337 816 l 446 816 l 240 1073 l 129 1073 l -76 816 "},"c":{"x_min":78.9375,"x_max":939.171875,"ha":1029,"o":"m 78 275 b 370 -11 78 18 265 -11 l 634 -11 b 939 237 852 -11 939 58 l 939 258 l 830 258 l 830 234 b 630 86 830 119 739 86 l 432 86 b 196 280 291 86 196 122 l 196 429 b 409 622 196 605 299 622 l 624 622 b 818 476 741 622 818 594 l 818 459 l 926 459 l 926 479 b 623 719 926 629 841 719 l 427 719 b 78 433 255 719 78 690 l 78 275 "},"¶":{"x_min":68.0625,"x_max":666.953125,"ha":833,"o":"m 558 0 l 666 0 l 666 1005 l 329 1005 b 68 784 174 1005 68 948 b 307 569 68 654 160 569 l 307 0 l 416 0 l 416 916 l 558 916 l 558 0 "},"−":{"x_min":63.96875,"x_max":752.703125,"ha":833,"o":"m 63 302 l 752 302 l 752 400 l 63 400 l 63 302 "},"≠":{"x_min":87.953125,"x_max":899.0625,"ha":1008,"o":"m 694 770 l 636 800 l 541 598 l 87 598 l 87 527 l 508 527 l 390 277 l 87 277 l 87 206 l 356 206 l 271 29 l 330 0 l 428 206 l 899 206 l 899 277 l 460 277 l 580 527 l 899 527 l 899 598 l 613 598 l 694 770 "},"•":{"x_min":93.921875,"x_max":586.640625,"ha":694,"o":"m 93 502 b 340 251 93 363 204 251 b 586 502 476 251 586 363 b 340 754 586 641 476 754 b 93 502 204 754 93 641 "},"¥":{"x_min":81.671875,"x_max":1230.453125,"ha":1339,"o":"m 597 0 l 714 0 l 714 200 l 1019 200 l 1019 288 l 714 288 l 714 416 l 1019 416 l 1019 505 l 793 505 l 1230 1005 l 1086 1005 l 656 511 l 225 1005 l 81 1005 l 518 505 l 292 505 l 292 416 l 597 416 l 597 288 l 292 288 l 292 200 l 597 200 l 597 0 "},"(":{"x_min":83.03125,"x_max":439.640625,"ha":514,"o":"m 83 300 b 349 -11 83 20 210 -11 l 439 -11 l 439 100 l 355 100 b 208 259 240 100 208 144 l 208 690 b 355 905 208 877 253 905 l 439 905 l 439 1016 l 349 1016 b 83 633 111 1016 83 879 l 83 300 "},"U":{"x_min":130.671875,"x_max":1287.609375,"ha":1447,"o":"m 130 252 b 481 -11 130 48 231 -11 l 936 -11 b 1287 252 1186 -11 1287 48 l 1287 1005 l 1154 1005 l 1154 254 b 940 100 1154 156 1121 100 l 477 100 b 264 254 296 100 264 156 l 264 1005 l 130 1005 l 130 252 "},"◊":{"x_min":93,"x_max":889,"ha":1003,"o":"m 889 493 l 533 1068 l 446 1068 l 93 493 l 446 -80 l 533 -80 l 889 493 m 788 490 l 525 58 b 494 0 514 40 501 15 l 490 0 b 460 58 486 13 474 33 l 192 495 l 453 926 b 486 986 467 947 478 968 l 490 986 b 521 926 497 970 510 944 l 788 490 "},"Ñ":{"x_min":122.5,"x_max":1357.03125,"ha":1510,"o":"m 122 0 l 255 0 l 255 883 l 1158 0 l 1357 0 l 1357 1005 l 1223 1005 l 1223 122 l 321 1005 l 122 1005 l 122 0 m 955 1278 b 876 1187 945 1235 925 1187 b 752 1230 839 1187 797 1208 b 616 1271 709 1251 662 1271 b 457 1091 532 1271 461 1178 l 525 1091 b 604 1183 534 1134 555 1183 b 728 1141 641 1183 684 1163 b 864 1098 771 1119 819 1098 b 1023 1278 948 1098 1019 1191 l 955 1278 "},"F":{"x_min":130.671875,"x_max":1069.828125,"ha":1165,"o":"m 130 0 l 264 0 l 264 462 l 1038 462 l 1038 573 l 264 573 l 264 894 l 1069 894 l 1069 1005 l 130 1005 l 130 0 "},"­":{"x_min":111.609375,"x_max":492.71875,"ha":617,"o":"m 111 312 l 492 312 l 492 423 l 111 423 l 111 312 "},":":{"x_min":251.8125,"x_max":404.25,"ha":669,"o":"m 251 0 l 404 0 l 404 172 l 251 172 l 251 0 m 251 536 l 404 536 l 404 708 l 251 708 l 251 536 "},"Û":{"x_min":130.671875,"x_max":1287.609375,"ha":1447,"o":"m 130 252 b 481 -11 130 48 231 -11 l 936 -11 b 1287 252 1186 -11 1287 48 l 1287 1005 l 1154 1005 l 1154 253 b 940 99 1154 156 1121 99 l 477 99 b 264 253 296 99 264 156 l 264 1005 l 130 1005 l 130 252 m 447 1071 l 553 1071 l 707 1265 l 861 1071 l 970 1071 l 764 1328 l 653 1328 l 447 1071 "},"*":{"x_min":112.109375,"x_max":694.203125,"ha":822,"o":"m 478 683 l 403 639 l 330 683 l 330 769 l 403 814 l 478 769 l 478 683 m 112 682 l 328 682 l 219 492 l 295 447 l 403 637 l 510 447 l 586 492 l 479 682 l 694 682 l 694 771 l 479 771 l 586 961 l 510 1006 l 403 815 l 295 1006 l 219 961 l 328 771 l 112 771 l 112 682 "},"†":{"x_min":103.4375,"x_max":805.78125,"ha":928,"o":"m 400 0 l 509 0 l 509 647 l 805 647 l 805 744 l 509 744 l 509 1005 l 400 1005 l 400 744 l 103 744 l 103 647 l 400 647 l 400 0 "},"∕":{"x_min":-301,"x_max":603,"ha":308,"o":"m -301 -11 l -188 -11 l 603 1016 l 490 1016 l -301 -11 "},"°":{"x_min":77.578125,"x_max":466.859375,"ha":556,"o":"m 272 619 b 466 818 381 619 466 706 b 272 1016 466 929 381 1016 b 77 818 163 1016 77 929 b 272 619 77 706 163 619 m 156 818 b 272 936 156 883 208 936 b 387 818 336 936 387 883 b 272 700 387 752 336 700 b 156 818 208 700 156 752 "},"V":{"x_min":29.046875,"x_max":1284,"ha":1339,"o":"m 574 0 l 738 0 l 1284 1005 l 1134 1005 l 656 122 l 178 1005 l 29 1005 l 574 0 "},"å":{"x_min":73.5,"x_max":944.609375,"ha":1063,"o":"m 827 0 l 944 0 l 944 475 b 579 719 944 686 797 719 l 394 719 b 104 537 185 719 104 666 l 104 502 l 221 502 l 221 527 b 397 622 221 586 250 622 l 568 622 b 827 477 748 622 827 605 l 827 344 l 824 344 b 577 429 784 412 729 429 l 389 429 b 73 248 185 429 73 409 l 73 201 b 296 -11 73 68 119 -11 l 577 -11 b 824 70 756 -11 793 6 l 827 70 l 827 0 m 827 190 b 533 86 827 101 745 86 l 378 86 b 190 198 217 86 190 119 l 190 220 b 383 331 190 309 232 331 l 563 331 b 827 222 743 331 827 319 l 827 190 m 416 1004 b 521 1111 416 1063 462 1111 b 626 1004 579 1111 626 1063 b 521 897 626 944 579 897 b 416 1004 462 897 416 944 m 337 1004 b 521 816 337 900 419 816 b 705 1004 623 816 705 900 b 521 1191 705 1108 623 1191 b 337 1004 419 1191 337 1108 "}," ":{"x_min":0,"x_max":0,"ha":669},"0":{"x_min":83.03125,"x_max":1229.078125,"ha":1339,"o":"m 83 325 b 421 -11 83 106 155 -11 l 890 -11 b 1229 325 1156 -11 1229 106 l 1229 680 b 890 1016 1229 898 1156 1016 l 421 1016 b 83 680 155 1016 83 898 l 83 325 m 1103 388 b 804 100 1103 127 1065 100 l 507 100 b 208 388 246 100 208 127 l 208 616 b 507 905 208 877 246 905 l 804 905 b 1103 616 1065 905 1103 877 l 1103 388 "},"”":{"x_min":121.140625,"x_max":551.25,"ha":686,"o":"m 551 1005 l 406 1005 l 406 825 l 458 825 b 398 750 458 766 446 750 l 398 669 b 551 833 530 669 551 734 l 551 1005 m 273 1005 l 129 1005 l 129 825 l 181 825 b 121 750 181 766 168 750 l 121 669 b 273 833 253 669 273 734 l 273 1005 "},"¾":{"x_min":117.0625,"x_max":1769.453125,"ha":2006,"o":"m 598 -11 l 711 -11 l 1502 1016 l 1389 1016 l 598 -11 m 117 551 b 347 395 117 438 171 395 l 617 395 b 849 572 841 395 849 462 b 739 713 849 684 816 705 l 739 716 b 839 862 824 734 839 751 b 619 1016 839 970 794 1016 l 302 1016 b 121 870 176 1016 121 968 l 121 830 l 216 830 l 216 858 b 370 936 216 915 254 936 l 592 936 b 744 841 724 936 744 925 b 630 755 744 781 743 755 l 397 755 l 397 675 l 650 675 b 754 579 725 675 754 669 b 567 476 754 479 733 476 l 348 476 b 212 604 223 476 212 509 l 117 604 l 117 551 m 1014 123 l 1572 123 l 1572 0 l 1667 0 l 1667 123 l 1769 123 l 1769 204 l 1667 204 l 1667 602 l 1554 602 l 1014 223 l 1014 123 m 1572 204 l 1122 204 l 1122 206 l 1572 522 l 1572 204 "},"@":{"x_min":57.171875,"x_max":1031.71875,"ha":1111,"o":"m 387 442 b 567 679 387 551 462 679 b 677 547 627 679 677 624 b 496 301 677 434 600 301 b 387 442 430 301 387 356 m 907 216 b 579 69 816 115 711 69 b 152 499 334 69 152 244 b 564 905 152 729 321 905 b 936 572 770 905 936 787 b 764 301 936 420 846 301 b 740 337 745 301 740 316 b 749 399 740 356 744 380 l 843 759 l 739 759 l 715 679 b 559 776 680 748 623 776 b 279 426 392 776 279 595 b 466 204 279 308 364 204 b 620 284 524 204 581 240 l 623 284 b 702 204 623 230 660 204 b 1031 594 807 204 1031 330 b 566 1016 1031 845 811 1016 b 57 504 288 1016 57 791 b 573 -11 57 180 287 -11 b 986 216 741 -11 896 72 l 907 216 "},"ö":{"x_min":87.109375,"x_max":1022.203125,"ha":1132,"o":"m 87 276 b 470 -11 87 43 249 -11 l 638 -11 b 1022 276 860 -11 1022 43 l 1022 431 b 638 719 1022 665 860 719 l 470 719 b 87 431 249 719 87 665 l 87 276 m 905 283 b 673 86 905 118 809 86 l 435 86 b 204 283 299 86 204 118 l 204 425 b 435 622 204 590 299 622 l 673 622 b 905 425 809 622 905 590 l 905 283 m 353 836 l 470 836 l 470 991 l 353 991 l 353 836 m 639 836 l 756 836 l 756 991 l 639 991 l 639 836 "},"i":{"x_min":126.578125,"x_max":243.640625,"ha":378,"o":"m 126 0 l 243 0 l 243 708 l 126 708 l 126 0 m 126 875 l 243 875 l 243 1005 l 126 1005 l 126 875 "},"≤":{"x_min":87.109375,"x_max":898.328125,"ha":1008,"o":"m 895 112 l 895 194 l 179 513 l 179 516 l 894 833 l 894 915 l 98 551 l 98 476 l 895 112 m 898 -23 l 898 47 l 87 47 l 87 -23 l 898 -23 "},"Õ":{"x_min":104.8125,"x_max":1374.71875,"ha":1510,"o":"m 1241 313 b 1009 100 1241 138 1137 100 l 469 100 b 238 313 341 100 238 138 l 238 691 b 469 905 238 866 341 905 l 1009 905 b 1241 691 1137 905 1241 866 l 1241 313 m 104 365 b 455 -11 104 111 189 -11 l 1023 -11 b 1374 365 1290 -11 1374 111 l 1374 640 b 1023 1016 1374 894 1290 1016 l 455 1016 b 104 640 189 1016 104 894 l 104 365 m 955 1279 b 876 1187 945 1236 925 1187 b 752 1230 839 1187 797 1208 b 616 1272 709 1251 662 1272 b 457 1091 532 1272 461 1179 l 525 1091 b 604 1183 534 1134 555 1183 b 728 1141 641 1183 684 1163 b 864 1098 771 1119 819 1098 b 1023 1279 948 1098 1019 1191 l 955 1279 "},"þ":{"x_min":110.25,"x_max":997.703125,"ha":1099,"o":"m 880 280 b 662 86 880 116 798 86 l 454 86 b 227 283 330 86 227 113 l 227 418 b 439 622 227 540 285 622 l 672 622 b 880 419 837 622 880 556 l 880 280 m 110 -247 l 227 -247 l 227 94 l 230 94 b 434 -11 254 20 310 -11 l 657 -11 b 997 295 898 -11 997 66 l 997 420 b 676 719 997 665 842 719 l 462 719 b 230 595 359 719 264 681 l 227 595 l 227 1005 l 110 1005 l 110 -247 "},"]":{"x_min":55.8125,"x_max":404.25,"ha":514,"o":"m 55 0 l 404 0 l 404 1005 l 55 1005 l 55 894 l 287 894 l 287 111 l 55 111 l 55 0 "},"m":{"x_min":110.25,"x_max":1570.71875,"ha":1715,"o":"m 110 0 l 227 0 l 227 444 b 446 622 227 558 296 622 l 563 622 b 792 429 749 622 792 566 l 792 0 l 909 0 l 909 419 b 1148 622 909 533 937 622 l 1231 622 b 1453 461 1418 622 1453 543 l 1453 0 l 1570 0 l 1570 475 b 1267 719 1570 636 1455 719 l 1125 719 b 868 588 1005 719 911 684 b 643 719 831 676 749 719 l 454 719 b 221 625 337 719 270 698 l 219 625 l 219 708 l 110 708 l 110 0 "},"8":{"x_min":100.71875,"x_max":1211.390625,"ha":1339,"o":"m 528 100 b 225 290 249 100 225 126 b 488 461 225 452 276 461 l 823 461 b 1086 290 1035 461 1086 452 b 784 100 1086 126 1063 100 l 528 100 m 495 572 b 238 744 280 572 238 584 b 464 905 238 872 270 905 l 847 905 b 1073 744 1041 905 1073 872 b 816 572 1073 584 1031 572 l 495 572 m 100 223 b 387 -11 100 50 191 -11 l 924 -11 b 1211 223 1120 -11 1211 50 l 1211 322 b 1033 518 1211 458 1131 501 l 1033 520 b 1199 719 1189 543 1199 654 l 1199 784 b 896 1016 1199 952 1107 1016 l 415 1016 b 112 784 204 1016 112 952 l 112 719 b 288 520 112 654 122 543 l 288 518 b 100 302 134 498 100 462 l 100 223 "},"ž":{"x_min":60.6875,"x_max":846.0625,"ha":926,"o":"m 60 0 l 846 0 l 846 97 l 221 97 l 221 100 l 837 611 l 837 708 l 81 708 l 81 611 l 677 611 l 677 608 l 60 97 l 60 0 m 392 817 l 512 817 l 715 1074 l 605 1074 l 452 881 l 302 1074 l 192 1074 l 392 817 "},"R":{"x_min":122.5,"x_max":1239.96875,"ha":1371,"o":"m 122 0 l 255 0 l 255 397 l 906 397 b 1102 220 1027 397 1102 377 l 1102 0 l 1227 0 l 1227 256 b 1058 445 1227 348 1195 420 l 1058 448 b 1239 638 1161 458 1239 497 l 1239 720 b 910 1005 1239 909 1195 1005 l 122 1005 l 122 0 m 255 508 l 255 894 l 862 894 b 1106 745 1058 894 1106 858 l 1106 654 b 895 508 1106 548 1043 508 l 255 508 "},"á":{"x_min":73.5,"x_max":944.609375,"ha":1063,"o":"m 827 0 l 944 0 l 944 475 b 579 719 944 686 797 719 l 394 719 b 104 537 185 719 104 666 l 104 502 l 221 502 l 221 527 b 397 622 221 586 250 622 l 568 622 b 827 477 748 622 827 605 l 827 344 l 824 344 b 577 429 784 412 729 429 l 389 429 b 73 248 185 429 73 409 l 73 201 b 296 -11 73 68 119 -11 l 577 -11 b 824 70 756 -11 793 6 l 827 70 l 827 0 m 827 190 b 533 86 827 101 745 86 l 378 86 b 190 198 217 86 190 119 l 190 220 b 383 331 190 309 232 331 l 563 331 b 827 222 743 331 827 319 l 827 190 m 406 816 l 498 816 l 748 1073 l 608 1073 l 406 816 "},"×":{"x_min":108,"x_max":710,"ha":833,"o":"m 710 110 l 475 350 l 710 586 l 643 655 l 409 417 l 176 655 l 109 586 l 343 350 l 108 110 l 174 44 l 409 281 l 643 44 l 710 110 "},"o":{"x_min":87.109375,"x_max":1022.203125,"ha":1132,"o":"m 87 276 b 470 -11 87 43 249 -11 l 638 -11 b 1022 276 860 -11 1022 43 l 1022 431 b 638 719 1022 665 860 719 l 470 719 b 87 431 249 719 87 665 l 87 276 m 905 283 b 673 86 905 118 809 86 l 435 86 b 204 283 299 86 204 118 l 204 425 b 435 622 204 590 299 622 l 673 622 b 905 425 809 622 905 590 l 905 283 "},"5":{"x_min":102.078125,"x_max":1216.828125,"ha":1339,"o":"m 121 468 l 240 468 b 446 572 272 562 340 572 l 826 572 b 1091 377 1026 572 1091 526 l 1091 331 b 805 98 1091 145 1071 98 l 428 98 b 227 305 243 98 227 173 l 102 305 l 102 284 b 406 -12 102 75 172 -12 l 846 -12 b 1216 275 1180 -12 1216 94 l 1216 397 b 872 683 1216 620 1098 683 l 544 683 b 249 579 349 683 292 668 l 246 579 l 246 893 l 1181 893 l 1181 1004 l 121 1004 l 121 468 "},"õ":{"x_min":87.109375,"x_max":1022.203125,"ha":1132,"o":"m 87 276 b 470 -11 87 43 249 -11 l 638 -11 b 1022 276 860 -11 1022 43 l 1022 431 b 638 719 1022 665 860 719 l 470 719 b 87 431 249 719 87 665 l 87 276 m 905 283 b 673 86 905 118 809 86 l 435 86 b 204 283 299 86 204 118 l 204 425 b 435 622 204 590 299 622 l 673 622 b 905 425 809 622 905 590 l 905 283 m 770 1023 b 691 931 760 980 740 931 b 567 975 654 931 612 952 b 431 1016 524 995 477 1016 b 272 836 347 1016 276 923 l 340 836 b 419 927 349 879 370 927 b 543 886 455 927 499 908 b 679 843 586 863 634 843 b 838 1023 763 843 834 936 l 770 1023 "},"7":{"x_min":96.984375,"x_max":1228.078125,"ha":1339,"o":"m 337 0 l 497 0 l 1228 854 l 1228 1005 l 96 1005 l 96 894 l 1102 894 l 337 0 "},"K":{"x_min":130.671875,"x_max":1333.890625,"ha":1371,"o":"m 130 0 l 264 0 l 264 468 l 420 468 l 1097 0 l 1331 0 l 1333 2 l 563 522 l 1269 1002 l 1267 1005 l 1049 1005 l 431 579 l 264 579 l 264 1005 l 130 1005 l 130 0 "},",":{"x_min":236.828125,"x_max":404.25,"ha":669,"o":"m 251 0 l 303 0 b 236 -77 303 -68 291 -76 l 236 -158 b 404 -4 349 -158 404 -123 l 404 172 l 251 172 l 251 0 "},"d":{"x_min":78.9375,"x_max":966.390625,"ha":1099,"o":"m 196 427 b 436 622 196 591 276 622 l 594 622 b 849 425 752 622 849 594 l 849 290 b 619 86 849 161 793 86 l 428 86 b 196 288 238 86 196 151 l 196 427 m 966 1005 l 849 1005 l 849 613 l 846 613 b 624 719 822 687 758 719 l 446 719 b 78 412 164 719 78 638 l 78 287 b 439 -11 78 43 227 -11 l 602 -11 b 854 112 725 -11 820 26 l 857 112 l 857 0 l 966 0 l 966 1005 "},"¨":{"x_min":-16.328125,"x_max":386.5625,"ha":378,"o":"m -16 836 l 100 836 l 100 991 l -16 991 l -16 836 m 269 836 l 386 836 l 386 991 l 269 991 l 269 836 "},"Ô":{"x_min":104.8125,"x_max":1374.71875,"ha":1510,"o":"m 1241 313 b 1009 99 1241 138 1137 99 l 469 99 b 238 313 341 99 238 138 l 238 691 b 469 905 238 866 341 905 l 1009 905 b 1241 691 1137 905 1241 866 l 1241 313 m 104 365 b 455 -11 104 110 189 -11 l 1023 -11 b 1374 365 1290 -11 1374 110 l 1374 640 b 1023 1016 1374 894 1290 1016 l 455 1016 b 104 640 189 1016 104 894 l 104 365 m 479 1071 l 585 1071 l 739 1265 l 892 1071 l 1001 1071 l 796 1328 l 684 1328 l 479 1071 "},"E":{"x_min":130.671875,"x_max":1103.859375,"ha":1200,"o":"m 130 0 l 1103 0 l 1103 111 l 264 111 l 264 462 l 1065 462 l 1065 573 l 264 573 l 264 894 l 1098 894 l 1098 1005 l 130 1005 l 130 0 "},"Y":{"x_min":24.5,"x_max":1287.609375,"ha":1339,"o":"m 589 0 l 722 0 l 722 425 l 1287 1005 l 1107 1005 l 656 538 l 204 1005 l 24 1005 l 589 425 l 589 0 "},"\"":{"x_min":46.28125,"x_max":408.328125,"ha":464,"o":"m 274 669 l 408 669 l 408 1005 l 274 1005 l 274 669 m 46 669 l 179 669 l 179 1005 l 46 1005 l 46 669 "},"‹":{"x_min":70.859375,"x_max":332,"ha":411,"o":"m 219 154 l 332 154 l 183 368 l 332 581 l 219 581 l 70 368 l 219 154 "},"˙":{"x_min":126.578125,"x_max":243.640625,"ha":378,"o":"m 126 836 l 243 836 l 243 991 l 126 991 l 126 836 "},"ê":{"x_min":78.9375,"x_max":967.75,"ha":1063,"o":"m 850 430 l 196 430 b 435 622 206 591 250 622 l 607 622 b 850 478 797 622 850 550 l 850 430 m 78 279 b 405 -10 78 18 253 -10 l 617 -10 b 967 200 835 -10 967 37 l 967 214 l 850 214 b 637 86 843 105 784 86 l 476 86 b 196 289 272 86 196 128 l 196 333 l 967 333 l 967 412 b 607 719 967 665 816 719 l 419 719 b 78 433 253 719 78 690 l 78 279 m 259 816 l 366 816 l 519 1010 l 673 816 l 782 816 l 577 1073 l 465 1073 l 259 816 "},"Ï":{"x_min":0,"x_max":402.890625,"ha":411,"o":"m 134 0 l 268 0 l 268 1005 l 134 1005 l 134 0 m 0 1091 l 117 1091 l 117 1247 l 0 1247 l 0 1091 m 285 1091 l 402 1091 l 402 1247 l 285 1247 l 285 1091 "},"„":{"x_min":121.140625,"x_max":551.25,"ha":686,"o":"m 551 180 l 406 180 l 406 0 l 458 0 b 398 -75 458 -58 446 -75 l 398 -155 b 551 8 530 -155 551 -90 l 551 180 m 273 180 l 129 180 l 129 0 l 181 0 b 121 -75 181 -58 168 -75 l 121 -155 b 273 8 253 -155 273 -90 l 273 180 "},"Â":{"x_min":20,"x_max":1357,"ha":1406,"o":"m 20 0 l 171 0 l 293 212 l 1083 212 l 1205 0 l 1357 0 l 771 1005 l 605 1005 l 20 0 m 1019 323 l 357 323 l 688 894 l 1019 323 m 427 1071 l 533 1071 l 687 1265 l 840 1071 l 949 1071 l 744 1328 l 632 1328 l 427 1071 "},"Í":{"x_min":87.109375,"x_max":428.75,"ha":411,"o":"m 134 0 l 268 0 l 268 1005 l 134 1005 l 134 0 m 87 1072 l 178 1072 l 428 1329 l 288 1329 l 87 1072 "},"´":{"x_min":71,"x_max":413,"ha":378,"o":"m 71 816 l 162 816 l 413 1073 l 272 1073 l 71 816 "},"ì":{"x_min":-42.1875,"x_max":299.4375,"ha":378,"o":"m 126 0 l 243 0 l 243 708 l 126 708 l 126 0 m 208 816 l 299 816 l 98 1073 l -42 1073 l 208 816 "},"±":{"x_min":63.96875,"x_max":752.703125,"ha":833,"o":"m 360 170 l 455 170 l 455 388 l 752 388 l 752 486 l 455 486 l 455 702 l 360 702 l 360 486 l 63 486 l 63 388 l 360 388 l 360 170 m 63 0 l 752 0 l 752 104 l 63 104 l 63 0 "},"Ú":{"x_min":130.671875,"x_max":1287.609375,"ha":1447,"o":"m 130 252 b 481 -11 130 48 231 -11 l 936 -11 b 1287 252 1186 -11 1287 48 l 1287 1005 l 1154 1005 l 1154 254 b 940 100 1154 156 1121 100 l 477 100 b 264 254 296 100 264 156 l 264 1005 l 130 1005 l 130 252 m 594 1072 l 686 1072 l 936 1329 l 796 1329 l 594 1072 "},"|":{"x_min":96.640625,"x_max":205.53125,"ha":308,"o":"m 96 1041 l 96 -347 l 205 -347 l 205 1041 l 96 1041 "},"§":{"x_min":122.90625,"x_max":987.09375,"ha":1132,"o":"m 180 165 b 369 -11 180 54 237 -11 l 705 -11 b 929 183 844 -11 929 -2 b 853 340 929 255 929 298 b 987 508 943 366 987 422 b 816 677 987 615 924 656 l 385 763 b 287 840 325 776 287 790 b 423 936 287 933 325 936 l 695 936 b 799 850 743 936 799 929 l 799 826 l 894 826 l 894 863 b 699 1016 894 952 865 1016 l 367 1016 b 178 837 215 1016 178 933 b 249 688 178 777 203 720 b 122 533 150 663 122 604 b 275 361 122 425 197 376 l 738 273 b 821 180 800 261 821 250 b 706 77 821 97 802 77 l 478 77 b 288 205 295 77 288 87 l 180 205 l 180 165 m 807 573 b 891 486 849 565 891 540 b 778 373 891 402 825 373 b 720 383 774 373 748 377 l 342 461 b 231 554 299 469 231 486 b 358 662 231 622 301 673 l 807 573 "},"Ý":{"x_min":24.5,"x_max":1287.609375,"ha":1339,"o":"m 589 0 l 722 0 l 722 425 l 1287 1005 l 1107 1005 l 656 538 l 204 1005 l 24 1005 l 589 425 l 589 0 m 541 1072 l 632 1072 l 883 1329 l 743 1329 l 541 1072 "},"b":{"x_min":110.25,"x_max":997.703125,"ha":1099,"o":"m 880 288 b 647 86 880 151 838 86 l 457 86 b 227 290 283 86 227 161 l 227 425 b 481 622 227 594 323 622 l 639 622 b 880 427 800 622 880 591 l 880 288 m 110 0 l 219 0 l 219 112 l 221 112 b 473 -11 255 26 351 -11 l 637 -11 b 997 287 849 -11 997 43 l 997 412 b 630 719 997 638 911 719 l 451 719 b 230 613 318 719 254 687 l 227 613 l 227 1005 l 110 1005 l 110 0 "},"q":{"x_min":78.9375,"x_max":966.390625,"ha":1099,"o":"m 849 283 b 622 86 849 113 745 86 l 413 86 b 196 280 277 86 196 116 l 196 419 b 404 622 196 556 239 622 l 637 622 b 849 418 790 622 849 540 l 849 283 m 849 -247 l 966 -247 l 966 708 l 857 708 l 857 595 l 854 595 b 622 719 820 681 725 719 l 400 719 b 78 420 234 719 78 665 l 78 295 b 419 -11 78 66 178 -11 l 642 -11 b 846 94 766 -11 822 20 l 849 94 l 849 -247 "},"Ω":{"x_min":92.5625,"x_max":1238.609375,"ha":1360,"o":"m 368 84 l 92 84 l 92 0 l 529 0 l 529 63 b 234 506 379 130 234 284 b 671 922 234 729 408 922 b 1098 512 944 922 1098 704 b 801 63 1098 273 951 131 l 801 0 l 1238 0 l 1238 84 l 958 84 l 958 88 b 1214 523 1086 161 1214 308 b 668 1005 1214 772 994 1005 b 117 522 359 1005 117 798 b 368 88 117 313 239 166 l 368 84 "},"Ö":{"x_min":104.8125,"x_max":1374.71875,"ha":1510,"o":"m 1241 313 b 1009 100 1241 138 1137 100 l 469 100 b 238 313 341 100 238 138 l 238 691 b 469 905 238 866 341 905 l 1009 905 b 1241 691 1137 905 1241 866 l 1241 313 m 104 365 b 455 -11 104 111 189 -11 l 1023 -11 b 1374 365 1290 -11 1374 111 l 1374 640 b 1023 1016 1374 894 1290 1016 l 455 1016 b 104 640 189 1016 104 894 l 104 365 m 539 1091 l 656 1091 l 656 1247 l 539 1247 l 539 1091 m 824 1091 l 941 1091 l 941 1247 l 824 1247 l 824 1091 "},"ﬂ":{"x_min":38.109375,"x_max":925.5625,"ha":1099,"o":"m 189 0 l 306 0 l 306 611 l 637 611 l 637 708 l 306 708 l 306 795 b 427 908 306 858 340 908 l 637 908 l 637 1005 l 417 1005 b 189 770 289 1005 189 938 l 189 708 l 38 708 l 38 611 l 189 611 l 189 0 m 808 0 l 925 0 l 925 1005 l 808 1005 l 808 0 "},"z":{"x_min":61.25,"x_max":846.609375,"ha":926,"o":"m 61 0 l 846 0 l 846 97 l 221 97 l 221 100 l 838 611 l 838 708 l 81 708 l 81 611 l 677 611 l 677 608 l 61 97 l 61 0 "},"™":{"x_min":69.421875,"x_max":1278.078125,"ha":1375,"o":"m 240 433 l 349 433 l 349 908 l 521 908 l 521 1005 l 69 1005 l 69 908 l 240 908 l 240 433 m 1169 433 l 1278 433 l 1278 1005 l 1102 1005 l 962 615 l 822 1005 l 646 1005 l 646 433 l 755 433 l 755 883 l 758 883 l 920 433 l 1004 433 l 1166 883 l 1169 883 l 1169 433 "},"ã":{"x_min":73.5,"x_max":944.609375,"ha":1063,"o":"m 827 0 l 944 0 l 944 475 b 579 719 944 686 797 719 l 394 719 b 104 537 185 719 104 666 l 104 502 l 221 502 l 221 527 b 397 622 221 586 250 622 l 568 622 b 827 477 748 622 827 605 l 827 344 l 824 344 b 577 429 784 412 729 429 l 389 429 b 73 248 185 429 73 409 l 73 201 b 296 -11 73 68 119 -11 l 577 -11 b 824 70 756 -11 793 6 l 827 70 l 827 0 m 827 190 b 533 86 827 101 745 86 l 378 86 b 190 198 217 86 190 119 l 190 220 b 383 331 190 309 232 331 l 563 331 b 827 222 743 331 827 319 l 827 190 m 736 1023 b 657 931 726 980 706 931 b 533 975 620 931 578 952 b 397 1016 490 995 443 1016 b 238 836 313 1016 242 923 l 306 836 b 385 927 315 879 336 927 b 509 886 421 927 465 908 b 645 843 552 863 600 843 b 804 1023 729 843 800 936 l 736 1023 "},"æ":{"x_min":73.5,"x_max":1640.140625,"ha":1749,"o":"m 792 344 l 789 344 b 564 429 748 412 694 429 l 389 429 b 73 248 185 429 73 409 l 73 201 b 296 -11 73 68 119 -11 l 468 -11 b 858 98 664 -11 801 -1 b 1184 -11 924 4 1031 -11 l 1298 -11 b 1640 200 1502 -11 1640 37 l 1640 213 l 1531 213 b 1320 86 1524 105 1457 86 l 1186 86 b 909 288 985 86 909 127 l 909 333 l 1640 333 l 1640 412 b 1290 719 1640 665 1489 719 l 1154 719 b 854 608 1026 719 902 713 b 607 719 824 716 676 719 l 394 719 b 104 537 185 719 104 666 l 104 502 l 221 502 l 221 527 b 397 622 221 586 250 622 l 582 622 b 792 477 713 622 792 598 l 792 344 m 792 181 b 551 77 792 93 698 77 l 330 77 b 190 190 215 77 190 125 l 190 220 b 383 331 190 309 232 331 l 571 331 b 792 222 700 331 792 319 l 792 181 m 1523 430 l 909 430 b 1143 622 920 591 966 622 l 1282 622 b 1523 477 1472 622 1523 550 l 1523 430 "},"®":{"x_min":40.828125,"x_max":1048.0625,"ha":1111,"o":"m 40 502 b 544 -11 40 219 266 -11 b 1048 502 822 -11 1048 219 b 544 1016 1048 786 822 1016 b 40 502 266 1016 40 786 m 136 502 b 544 919 136 733 318 919 b 952 502 770 919 952 733 b 544 86 952 272 770 86 b 136 502 318 86 136 272 m 351 212 l 446 212 l 446 462 l 529 462 l 672 212 l 781 212 l 624 466 b 777 623 713 476 777 518 b 562 794 777 745 702 794 l 351 794 l 351 212 m 446 543 l 446 713 l 562 713 b 681 631 617 713 681 701 b 560 543 681 552 627 543 l 446 543 "},"É":{"x_min":130.671875,"x_max":1103.859375,"ha":1200,"o":"m 130 0 l 1103 0 l 1103 111 l 264 111 l 264 462 l 1065 462 l 1065 573 l 264 573 l 264 894 l 1098 894 l 1098 1005 l 130 1005 l 130 0 m 473 1072 l 564 1072 l 815 1329 l 675 1329 l 473 1072 "},"~":{"x_min":94.171875,"x_max":723,"ha":833,"o":"m 143 248 b 262 350 174 297 208 350 b 394 301 295 350 343 326 b 552 256 445 277 501 256 b 723 373 644 256 693 315 l 674 455 b 554 354 642 406 608 354 b 422 402 521 354 473 377 b 264 447 371 426 316 447 b 94 330 173 447 124 388 l 143 248 "},"³":{"x_min":54.4375,"x_max":786.71875,"ha":869,"o":"m 54 551 b 284 395 54 438 108 395 l 555 395 b 786 572 778 395 786 462 b 676 713 786 684 754 705 l 676 716 b 777 862 762 734 777 751 b 556 1016 777 970 732 1016 l 239 1016 b 58 870 114 1016 58 968 l 58 830 l 153 830 l 153 858 b 307 936 153 915 191 936 l 529 936 b 681 841 661 936 681 925 b 567 755 681 781 680 755 l 334 755 l 334 675 l 588 675 b 691 579 662 675 691 669 b 504 476 691 479 671 476 l 285 476 b 149 604 160 476 149 509 l 54 604 l 54 551 "},"¡":{"x_min":251.8125,"x_max":404.25,"ha":669,"o":"m 251 536 l 404 536 l 404 708 l 251 708 l 251 536 m 273 -297 l 382 -297 l 382 416 l 273 416 l 273 -297 "},"[":{"x_min":99.359375,"x_max":447.8125,"ha":514,"o":"m 99 0 l 447 0 l 447 111 l 216 111 l 216 894 l 447 894 l 447 1005 l 99 1005 l 99 0 "},"L":{"x_min":130.671875,"x_max":1029,"ha":1063,"o":"m 130 0 l 1029 0 l 1029 111 l 264 111 l 264 1005 l 130 1005 l 130 0 "}," ":{"x_min":0,"x_max":0,"ha":669},"∑":{"x_min":33.890625,"x_max":943.078125,"ha":1003,"o":"m 943 -136 l 943 -40 l 195 -40 l 195 -36 l 651 430 l 224 888 l 224 893 l 918 893 l 918 987 l 58 987 l 58 916 l 517 422 l 33 -72 l 33 -136 l 943 -136 "},"%":{"x_min":34.28125,"x_max":1780.703125,"ha":1851,"o":"m 659 519 b 566 445 659 458 612 445 l 235 445 b 143 519 189 445 143 458 l 143 844 b 235 919 143 906 189 919 l 566 919 b 659 844 612 919 659 906 l 659 519 m 690 -11 l 781 -11 l 1117 1016 l 1027 1016 l 690 -11 m 1671 159 b 1579 86 1671 98 1625 86 l 1248 86 b 1155 159 1202 86 1155 98 l 1155 484 b 1248 559 1155 547 1202 559 l 1579 559 b 1671 484 1625 559 1671 547 l 1671 159 m 34 515 b 215 348 34 358 132 348 l 586 348 b 767 515 669 348 767 358 l 767 850 b 586 1016 767 1006 669 1016 l 215 1016 b 34 850 132 1016 34 1006 l 34 515 m 1047 155 b 1228 -11 1047 -1 1145 -11 l 1599 -11 b 1780 155 1682 -11 1780 -1 l 1780 490 b 1599 656 1780 647 1682 656 l 1228 656 b 1047 490 1145 656 1047 647 l 1047 155 "},"P":{"x_min":130.671875,"x_max":1223.640625,"ha":1304,"o":"m 130 0 l 264 0 l 264 395 l 916 395 b 1223 731 1205 395 1223 508 b 941 1005 1223 966 1121 1005 l 130 1005 l 130 0 m 1090 650 b 921 506 1090 545 1027 506 l 264 506 l 264 894 l 910 894 b 1090 745 1026 894 1090 865 l 1090 650 "},"∏":{"x_min":39.46875,"x_max":1195.0625,"ha":1263,"o":"m 1195 894 l 1195 987 l 39 987 l 39 894 l 246 894 l 246 -136 l 356 -136 l 356 894 l 877 894 l 877 -136 l 988 -136 l 988 894 l 1195 894 "},"À":{"x_min":20,"x_max":1357,"ha":1406,"o":"m 20 0 l 171 0 l 293 212 l 1083 212 l 1205 0 l 1357 0 l 771 1005 l 605 1005 l 20 0 m 1019 323 l 357 323 l 688 894 l 1019 323 m 711 1072 l 802 1072 l 601 1329 l 461 1329 l 711 1072 "},"_":{"x_min":0,"x_max":680.5625,"ha":694,"o":"m 0 -173 l 680 -173 l 680 -104 l 0 -104 l 0 -173 "},"ñ":{"x_min":110.25,"x_max":966.390625,"ha":1099,"o":"m 110 0 l 227 0 l 227 402 b 563 622 227 569 289 622 l 593 622 b 849 450 820 622 849 554 l 849 0 l 966 0 l 966 479 b 677 719 966 606 896 719 l 502 719 b 221 586 356 719 265 695 l 219 586 l 219 708 l 110 708 l 110 0 m 754 1023 b 675 931 744 980 724 931 b 551 975 638 931 596 952 b 415 1016 507 995 461 1016 b 255 836 330 1016 259 923 l 323 836 b 402 927 333 879 353 927 b 526 886 439 927 483 908 b 662 843 570 863 617 843 b 822 1023 747 843 818 936 l 754 1023 "},"+":{"x_min":63.96875,"x_max":752.703125,"ha":833,"o":"m 360 0 l 455 0 l 455 302 l 752 302 l 752 400 l 455 400 l 455 702 l 360 702 l 360 400 l 63 400 l 63 302 l 360 302 l 360 0 "},"‚":{"x_min":108.890625,"x_max":261.328125,"ha":378,"o":"m 261 180 l 117 180 l 117 0 l 168 0 b 108 -75 168 -58 156 -75 l 108 -155 b 261 8 240 -155 261 -90 l 261 180 "},"½":{"x_min":196,"x_max":1738.140625,"ha":2006,"o":"m 353 -11 l 466 -11 l 1257 1016 l 1144 1016 l 353 -11 m 464 406 l 559 406 l 559 1009 l 455 1009 l 196 813 l 245 745 l 464 912 l 464 406 m 1016 0 l 1738 0 l 1738 80 l 1112 80 l 1112 119 b 1275 216 1112 183 1129 206 l 1506 231 b 1732 412 1670 243 1732 263 b 1514 609 1732 531 1700 609 l 1245 609 b 1019 437 1092 609 1019 563 l 1019 380 l 1114 380 l 1114 400 b 1260 529 1114 519 1167 529 l 1502 529 b 1637 408 1617 529 1637 488 b 1520 311 1637 348 1622 318 l 1229 290 b 1016 115 1086 280 1016 247 l 1016 0 "},"Æ":{"x_min":27.21875,"x_max":1622.453125,"ha":1749,"o":"m 823 345 l 386 345 l 720 894 l 823 894 l 823 345 m 27 0 l 176 0 l 325 234 l 823 234 l 823 0 l 1622 0 l 1622 111 l 956 111 l 956 462 l 1580 462 l 1580 573 l 956 573 l 956 894 l 1610 894 l 1610 1005 l 643 1005 l 27 0 "},"Ë":{"x_min":130.671875,"x_max":1103.859375,"ha":1200,"o":"m 130 0 l 1103 0 l 1103 111 l 264 111 l 264 462 l 1065 462 l 1065 573 l 264 573 l 264 894 l 1098 894 l 1098 1005 l 130 1005 l 130 0 m 386 1091 l 503 1091 l 503 1247 l 386 1247 l 386 1091 m 672 1091 l 789 1091 l 789 1247 l 672 1247 l 672 1091 "},"'":{"x_min":118.421875,"x_max":251.8125,"ha":378,"o":"m 118 669 l 251 669 l 251 1005 l 118 1005 l 118 669 "},"Š":{"x_min":104.8125,"x_max":1238.609375,"ha":1371,"o":"m 106 242 b 472 -11 106 23 277 -11 l 842 -11 b 1238 254 1039 -11 1238 6 l 1238 319 b 869 566 1238 490 1129 566 l 475 566 b 230 726 266 566 230 606 b 578 905 230 891 321 905 l 720 905 b 1088 716 1069 905 1086 876 l 1214 716 l 1214 751 b 800 1016 1214 930 1131 1016 l 513 1016 b 104 736 238 1016 104 965 b 645 444 104 469 238 444 l 898 444 b 1113 286 1064 444 1113 412 b 862 99 1113 141 1056 99 l 449 99 b 231 245 283 99 231 147 l 231 316 l 106 316 l 106 242 m 611 1072 l 730 1072 l 933 1329 l 823 1329 l 671 1136 l 521 1329 l 411 1329 l 611 1072 "},"ª":{"x_min":54.4375,"x_max":622.03125,"ha":690,"o":"m 547 583 l 622 583 l 622 869 b 401 1015 622 1015 476 1015 l 246 1015 b 76 905 104 1015 76 963 l 76 884 l 155 884 b 247 943 155 909 164 943 l 398 943 b 534 855 483 943 534 929 l 534 790 l 532 790 b 386 838 506 827 470 838 l 201 838 b 54 731 121 838 54 816 l 54 704 b 198 576 54 623 84 576 l 385 576 b 500 587 443 576 477 579 b 544 626 524 594 534 606 l 547 626 l 547 583 m 390 775 b 534 705 475 775 534 768 b 378 640 534 648 473 640 l 224 640 b 133 706 149 640 133 668 b 234 775 133 755 160 775 l 390 775 "},"Œ":{"x_min":38.109375,"x_max":1774.890625,"ha":1850,"o":"m 967 313 b 736 100 967 138 864 100 l 402 100 b 171 313 274 100 171 138 l 171 691 b 402 905 171 866 274 905 l 736 905 b 967 691 864 905 967 866 l 967 313 m 967 0 l 1774 0 l 1774 111 l 1101 111 l 1101 462 l 1724 462 l 1724 573 l 1101 573 l 1101 894 l 1750 894 l 1750 1005 l 967 1005 l 967 902 l 965 902 b 762 1016 933 1008 839 1016 l 389 1016 b 38 640 122 1016 38 894 l 38 365 b 389 -11 38 111 122 -11 l 762 -11 b 965 102 839 -11 933 -2 l 967 102 l 967 0 "},"˛":{"x_min":62.609375,"x_max":307.609375,"ha":378,"o":"m 193 0 b 62 -190 125 -38 62 -126 b 191 -288 62 -250 104 -288 b 307 -269 234 -288 281 -280 l 291 -222 b 230 -233 277 -227 249 -233 b 157 -170 182 -233 157 -204 b 262 0 157 -122 198 -66 l 193 0 "},"ð":{"x_min":86.96875,"x_max":1022.0625,"ha":1132,"o":"m 905 282 b 673 85 905 117 809 85 l 435 85 b 204 282 299 85 204 117 l 204 424 b 435 621 204 589 299 621 l 673 621 b 905 424 809 621 905 589 l 905 282 m 378 837 l 446 788 l 651 913 b 865 685 751 870 830 798 b 638 719 804 710 725 719 l 470 719 b 86 431 248 719 86 664 l 86 276 b 470 -11 86 42 248 -11 l 638 -11 b 1022 276 860 -11 1022 42 l 1022 394 b 755 977 1022 696 933 879 l 917 1077 l 849 1125 l 669 1016 b 273 1071 563 1054 431 1071 l 238 982 b 556 946 344 982 455 974 l 378 837 "},"T":{"x_min":23.140625,"x_max":1152.859375,"ha":1200,"o":"m 521 0 l 654 0 l 654 894 l 1152 894 l 1152 1005 l 23 1005 l 23 894 l 521 894 l 521 0 "},"š":{"x_min":84.390625,"x_max":956.859375,"ha":1063,"o":"m 84 201 b 419 -10 84 -10 246 -10 l 634 -10 b 956 194 777 -10 956 -3 l 956 197 b 661 407 956 389 837 407 l 352 407 b 210 499 230 407 210 440 l 210 525 b 415 622 210 606 247 622 l 619 622 b 818 511 747 622 818 619 l 818 504 l 926 504 l 926 542 b 626 719 926 642 890 719 l 446 719 b 93 540 157 719 93 656 l 93 499 b 319 310 93 364 155 310 l 680 310 b 839 204 820 310 839 272 l 839 199 b 608 86 839 93 784 86 l 357 86 b 193 210 238 86 193 122 l 193 244 l 84 244 l 84 201 m 460 817 l 579 817 l 782 1074 l 672 1074 l 519 881 l 370 1074 l 259 1074 l 460 817 "},"℮":{"x_min":47.890625,"x_max":1166.734375,"ha":1239,"o":"m 1166 488 l 1166 502 b 605 1016 1166 786 916 1016 b 47 502 296 1016 47 786 b 605 -9 47 219 296 -9 b 1048 188 785 -9 948 69 l 968 188 b 607 18 879 86 751 18 b 264 170 473 18 352 77 b 253 202 257 179 253 190 l 253 481 b 260 488 253 487 256 488 l 1166 488 m 961 525 b 954 515 961 522 958 515 l 260 515 b 253 525 256 515 253 522 l 253 800 b 265 834 253 813 257 826 b 607 986 354 926 475 986 b 947 840 740 986 859 927 b 961 805 955 830 961 818 l 961 525 "},"Þ":{"x_min":130.671875,"x_max":1223.640625,"ha":1304,"o":"m 130 0 l 264 0 l 264 272 l 916 272 b 1223 608 1205 272 1223 384 b 941 881 1223 843 1121 881 l 264 881 l 264 1005 l 130 1005 l 130 0 m 1090 526 b 921 383 1090 422 1027 383 l 264 383 l 264 770 l 910 770 b 1090 622 1026 770 1090 741 l 1090 526 "},"j":{"x_min":12.25,"x_max":243.640625,"ha":378,"o":"m 12 -247 l 58 -247 b 243 -81 178 -247 243 -181 l 243 708 l 126 708 l 126 -63 b 12 -150 126 -134 103 -150 l 12 -247 m 126 875 l 243 875 l 243 1005 l 126 1005 l 126 875 "},"1":{"x_min":257.25,"x_max":819.390625,"ha":1339,"o":"m 694 0 l 819 0 l 819 1005 l 662 1005 l 257 677 l 325 590 l 694 888 l 694 0 "},"›":{"x_min":71,"x_max":332,"ha":411,"o":"m 71 154 l 183 154 l 332 368 l 183 581 l 71 581 l 219 368 l 71 154 "},"ı":{"x_min":126.578125,"x_max":243.640625,"ha":378,"o":"m 126 0 l 243 0 l 243 708 l 126 708 l 126 0 "},"ℓ":{"x_min":51.71875,"x_max":811.21875,"ha":872,"o":"m 752 248 b 499 84 709 172 615 84 b 296 293 401 84 299 150 l 295 318 b 673 859 522 502 673 670 b 450 1098 673 980 605 1098 b 189 743 325 1098 189 1018 l 189 354 b 51 256 147 320 99 291 l 88 191 b 190 263 123 215 159 243 l 190 250 b 475 -4 205 120 294 -4 b 811 200 611 -4 729 59 l 752 248 m 295 772 b 450 1022 295 962 385 1022 b 583 850 548 1022 583 944 b 295 416 583 704 455 563 l 295 772 "},"ä":{"x_min":73.5,"x_max":944.609375,"ha":1063,"o":"m 827 0 l 944 0 l 944 475 b 579 719 944 686 797 719 l 394 719 b 104 537 185 719 104 666 l 104 502 l 221 502 l 221 527 b 397 622 221 586 250 622 l 568 622 b 827 477 748 622 827 605 l 827 344 l 824 344 b 577 429 784 412 729 429 l 389 429 b 73 248 185 429 73 409 l 73 201 b 296 -11 73 68 119 -11 l 577 -11 b 824 70 756 -11 793 6 l 827 70 l 827 0 m 827 190 b 533 86 827 101 745 86 l 378 86 b 190 198 217 86 190 119 l 190 220 b 383 331 190 309 232 331 l 563 331 b 827 222 743 331 827 319 l 827 190 m 319 836 l 436 836 l 436 991 l 319 991 l 319 836 m 605 836 l 722 836 l 722 991 l 605 991 l 605 836 "},"<":{"x_min":64.0625,"x_max":752.78125,"ha":833,"o":"m 64 298 l 752 -11 l 752 108 l 212 351 l 752 594 l 752 714 l 64 404 l 64 298 "},"£":{"x_min":87.109375,"x_max":1225,"ha":1339,"o":"m 87 0 l 1225 0 l 1225 111 l 310 111 l 310 113 b 381 316 363 144 381 151 l 381 416 l 886 416 l 886 513 l 381 513 l 381 769 b 567 905 381 879 436 905 l 862 905 b 1082 708 1065 905 1082 858 l 1199 708 b 854 1016 1199 973 1106 1016 l 541 1016 b 255 780 372 1016 255 972 l 255 513 l 87 513 l 87 416 l 255 416 l 255 280 b 87 111 255 169 223 113 l 87 0 "},"¹":{"x_min":168.78125,"x_max":532.1875,"ha":869,"o":"m 436 406 l 532 406 l 532 1009 l 428 1009 l 168 813 l 217 745 l 436 912 l 436 406 "},"t":{"x_min":20.421875,"x_max":774.46875,"ha":824,"o":"m 172 212 b 443 -11 172 97 224 -11 l 507 -11 b 774 243 760 -11 774 101 l 774 320 l 679 320 l 679 268 b 499 86 679 119 654 86 l 462 86 b 289 258 334 86 289 126 l 289 611 l 754 611 l 754 708 l 289 708 l 289 876 l 172 876 l 172 708 l 20 708 l 20 611 l 172 611 l 172 212 "},"¬":{"x_min":63.96875,"x_max":752.703125,"ha":833,"o":"m 657 154 l 752 154 l 752 544 l 63 544 l 63 447 l 657 447 l 657 154 "},"ù":{"x_min":110.25,"x_max":966.390625,"ha":1099,"o":"m 857 0 l 966 0 l 966 708 l 849 708 l 849 305 b 513 86 849 138 786 86 l 483 86 b 227 258 255 86 227 154 l 227 708 l 110 708 l 110 229 b 398 -11 110 101 179 -11 l 574 -11 b 854 122 720 -11 811 12 l 857 122 l 857 0 m 562 816 l 653 816 l 451 1073 l 311 1073 l 562 816 "},"W":{"x_min":8.328125,"x_max":1805,"ha":1850,"o":"m 400 0 l 571 0 l 906 883 l 1241 0 l 1413 0 l 1805 1005 l 1674 1005 l 1325 122 l 992 1005 l 820 1005 l 483 126 l 139 1005 l 8 1005 l 400 0 "},"ï":{"x_min":-16.328125,"x_max":386.5625,"ha":378,"o":"m 126 0 l 243 0 l 243 708 l 126 708 l 126 0 m -16 836 l 100 836 l 100 991 l -16 991 l -16 836 m 269 836 l 386 836 l 386 991 l 269 991 l 269 836 "},">":{"x_min":64.21875,"x_max":752.9375,"ha":833,"o":"m 752 404 l 64 714 l 64 594 l 604 351 l 64 108 l 64 -11 l 752 298 l 752 404 "},"v":{"x_min":8.171875,"x_max":931,"ha":958,"o":"m 400 0 l 539 0 l 931 708 l 807 708 l 469 97 l 132 708 l 8 708 l 400 0 "},"û":{"x_min":110.25,"x_max":966.390625,"ha":1099,"o":"m 857 0 l 966 0 l 966 708 l 849 708 l 849 305 b 513 86 849 139 786 86 l 483 86 b 227 258 255 86 227 154 l 227 708 l 110 708 l 110 229 b 398 -10 110 101 179 -10 l 574 -10 b 854 122 720 -10 811 12 l 857 122 l 857 0 m 277 816 l 383 816 l 537 1010 l 691 816 l 800 816 l 594 1073 l 483 1073 l 277 816 "},"Ò":{"x_min":104.8125,"x_max":1374.71875,"ha":1510,"o":"m 1241 313 b 1009 100 1241 138 1137 100 l 469 100 b 238 313 341 100 238 138 l 238 691 b 469 905 238 866 341 905 l 1009 905 b 1241 691 1137 905 1241 866 l 1241 313 m 104 365 b 455 -11 104 111 189 -11 l 1023 -11 b 1374 365 1290 -11 1374 111 l 1374 640 b 1023 1016 1374 894 1290 1016 l 455 1016 b 104 640 189 1016 104 894 l 104 365 m 763 1072 l 854 1072 l 653 1329 l 513 1329 l 763 1072 "},"&":{"x_min":90.84375,"x_max":1481.921875,"ha":1510,"o":"m 1432 0 l 1481 102 l 1283 209 b 1290 281 1287 234 1290 259 l 1290 494 l 1164 494 l 1164 269 l 405 679 b 357 800 358 704 357 734 b 484 905 357 865 379 905 l 926 905 b 1055 783 998 905 1055 876 l 1055 708 l 1181 708 l 1181 791 b 925 1016 1181 929 1115 1016 l 444 1016 b 224 813 315 1016 224 958 b 331 597 224 670 241 656 l 331 594 b 90 319 137 594 90 504 b 447 -11 90 88 162 -11 l 923 -11 b 1249 97 1057 -11 1187 2 l 1432 0 m 1126 156 b 906 100 1111 115 1034 100 l 450 100 b 224 287 254 100 224 172 l 224 355 b 386 530 224 516 350 530 l 427 530 l 1126 156 "},"˝":{"x_min":-82,"x_max":565,"ha":378,"o":"m 223 816 l 314 816 l 565 1073 l 424 1073 l 223 816 m -82 816 l 9 816 l 259 1073 l 119 1073 l -82 816 "},"Ð":{"x_min":36.75,"x_max":1339.328125,"ha":1474,"o":"m 1205 448 b 932 111 1205 147 1094 111 l 255 111 l 255 462 l 824 462 l 824 573 l 255 573 l 255 894 l 954 894 b 1205 551 1117 894 1205 841 l 1205 448 m 122 0 l 914 0 b 1339 502 1249 0 1339 133 b 918 1005 1339 900 1249 1005 l 122 1005 l 122 573 l 36 573 l 36 462 l 122 462 l 122 0 "},"I":{"x_min":134.75,"x_max":268.140625,"ha":411,"o":"m 134 0 l 268 0 l 268 1005 l 134 1005 l 134 0 "},"ˉ":{"x_min":-83.03125,"x_max":453.25,"ha":378,"o":"m -83 884 l 453 884 l 453 973 l -83 973 l -83 884 "},"G":{"x_min":104.8125,"x_max":1339.328125,"ha":1474,"o":"m 1339 498 l 700 498 l 700 387 l 1205 387 l 1205 286 b 990 100 1205 147 1124 100 l 469 100 b 238 313 341 100 238 138 l 238 691 b 469 905 238 866 341 905 l 815 905 b 1200 704 1144 905 1200 891 l 1325 704 l 1325 740 b 959 1016 1325 972 1136 1016 l 455 1016 b 104 640 189 1016 104 894 l 104 365 b 455 -11 104 111 189 -11 l 1005 -11 b 1339 359 1252 -11 1339 86 l 1339 498 "},"`":{"x_min":-41.640625,"x_max":300,"ha":378,"o":"m 208 816 l 300 816 l 98 1073 l -41 1073 l 208 816 "},"·":{"x_min":227.3125,"x_max":428.75,"ha":669,"o":"m 328 520 b 227 418 273 520 227 472 b 328 315 227 362 273 315 b 428 418 382 315 428 362 b 328 520 428 473 382 520 "},"r":{"x_min":119.78125,"x_max":845.25,"ha":892,"o":"m 119 0 l 236 0 l 236 450 b 420 622 236 541 296 622 l 492 622 b 736 419 700 622 736 594 l 736 388 l 845 388 l 845 473 b 553 719 845 647 773 719 l 443 719 b 231 605 363 719 274 697 l 228 605 l 228 708 l 119 708 l 119 0 "},"¿":{"x_min":80.3125,"x_max":1012.671875,"ha":1099,"o":"m 553 370 b 396 268 553 294 442 276 b 80 -16 176 231 80 215 b 577 -308 80 -294 187 -308 b 1012 -83 861 -308 1012 -308 l 1012 27 l 895 27 l 895 -62 b 553 -211 895 -211 812 -211 b 197 -31 231 -211 197 -193 b 381 159 197 119 225 130 b 662 375 616 205 662 226 l 662 401 l 553 401 l 553 370 m 532 536 l 684 536 l 684 708 l 532 708 l 532 536 "},"ý":{"x_min":5,"x_max":902,"ha":926,"o":"m 147 -263 b 509 -87 388 -261 437 -233 l 902 708 l 775 708 l 473 81 l 137 708 l 5 708 l 398 -11 l 426 -11 b 147 -166 365 -154 327 -166 l 147 -263 m 339 816 l 431 816 l 681 1073 l 541 1073 l 339 816 "},"x":{"x_min":7,"x_max":933,"ha":958,"o":"m 7 0 l 174 0 l 470 306 l 765 0 l 933 0 l 553 377 l 882 708 l 721 708 l 470 448 l 218 708 l 57 708 l 386 377 l 7 0 "},"è":{"x_min":78.9375,"x_max":967.75,"ha":1063,"o":"m 850 430 l 196 430 b 435 622 206 591 250 622 l 607 622 b 850 477 797 622 850 550 l 850 430 m 78 279 b 405 -11 78 18 253 -11 l 617 -11 b 967 200 835 -11 967 37 l 967 213 l 850 213 b 637 86 843 105 784 86 l 476 86 b 196 288 272 86 196 127 l 196 333 l 967 333 l 967 412 b 607 719 967 665 816 719 l 419 719 b 78 433 253 719 78 690 l 78 279 m 544 816 l 635 816 l 434 1073 l 294 1073 l 544 816 "},"º":{"x_min":57.171875,"x_max":664.21875,"ha":736,"o":"m 57 750 b 306 577 57 611 161 577 l 415 577 b 664 750 559 577 664 611 l 664 844 b 415 1016 664 983 559 1016 l 306 1016 b 57 844 161 1016 57 983 l 57 750 m 577 768 b 426 650 577 669 514 650 l 294 650 b 144 768 205 650 144 669 l 144 826 b 294 944 144 925 205 944 l 426 944 b 577 826 514 944 577 925 l 577 768 "},"Ø":{"x_min":61.28125,"x_max":1417.71875,"ha":1510,"o":"m 268 184 b 238 314 249 215 238 257 l 238 691 b 469 905 238 867 341 905 l 1009 905 b 1141 882 1068 905 1114 901 l 268 184 m 1240 314 b 1009 100 1240 138 1137 100 l 469 100 b 338 122 421 100 376 105 l 1210 819 b 1240 691 1229 789 1240 747 l 1240 314 m 118 -52 l 232 37 b 455 -11 285 5 359 -11 l 1023 -11 b 1374 365 1289 -11 1374 111 l 1374 640 b 1314 903 1374 753 1357 840 l 1417 985 l 1360 1058 l 1246 967 b 1023 1017 1193 1000 1121 1017 l 455 1017 b 104 640 189 1017 104 894 l 104 365 b 164 102 104 251 122 164 l 61 20 l 118 -52 "},"∞":{"x_min":85.75,"x_max":1189.609375,"ha":1301,"o":"m 1189 409 b 954 661 1189 556 1097 661 b 646 458 819 661 735 558 b 340 661 559 559 464 661 b 85 402 196 661 85 551 b 328 150 85 261 197 150 b 638 352 461 150 551 251 b 941 150 755 223 838 150 b 1189 408 1069 150 1189 251 l 1189 409 m 337 220 b 160 401 230 220 160 302 b 328 594 160 502 223 594 b 600 401 447 594 526 490 b 340 220 533 331 446 220 l 337 220 m 945 594 b 1116 404 1041 594 1116 523 b 948 220 1116 313 1054 220 b 681 408 861 220 794 286 b 944 594 741 466 831 594 l 945 594 "},"μ":{"x_min":110.25,"x_max":966.390625,"ha":1099,"o":"m 857 0 l 966 0 l 966 708 l 849 708 l 849 305 b 513 86 849 138 786 86 l 483 86 b 227 258 255 86 227 154 l 227 708 l 110 708 l 110 -247 l 227 -247 l 227 23 b 398 -11 262 2 321 -11 l 574 -11 b 854 122 720 -11 811 12 l 857 122 l 857 0 "},"÷":{"x_min":63.96875,"x_max":752.703125,"ha":833,"o":"m 63 295 l 752 295 l 752 406 l 63 406 l 63 295 m 307 62 b 408 -40 307 5 352 -40 b 509 62 464 -40 509 5 b 408 165 509 119 464 165 b 307 62 352 165 307 119 m 307 640 b 408 537 307 583 352 537 b 509 640 464 537 509 583 b 408 743 509 697 464 743 b 307 640 352 743 307 697 "},"h":{"x_min":110.25,"x_max":966.390625,"ha":1099,"o":"m 110 0 l 227 0 l 227 402 b 563 622 227 569 289 622 l 593 622 b 849 450 820 622 849 554 l 849 0 l 966 0 l 966 479 b 677 719 966 606 896 719 l 510 719 b 230 586 364 719 273 695 l 227 586 l 227 1005 l 110 1005 l 110 0 "},".":{"x_min":251.8125,"x_max":404.25,"ha":669,"o":"m 251 0 l 404 0 l 404 172 l 251 172 l 251 0 "},";":{"x_min":236.828125,"x_max":404.25,"ha":669,"o":"m 251 0 l 303 0 b 236 -77 303 -59 289 -80 l 236 -158 b 404 -4 349 -158 404 -123 l 404 172 l 251 172 l 251 0 m 251 536 l 404 536 l 404 708 l 251 708 l 251 536 "},"f":{"x_min":38.109375,"x_max":637,"ha":686,"o":"m 189 0 l 306 0 l 306 611 l 637 611 l 637 708 l 306 708 l 306 795 b 427 908 306 858 340 908 l 637 908 l 637 1005 l 417 1005 b 189 770 289 1005 189 938 l 189 708 l 38 708 l 38 611 l 189 611 l 189 0 "},"“":{"x_min":121.140625,"x_max":551.25,"ha":686,"o":"m 121 669 l 265 669 l 265 850 l 213 850 b 273 925 213 908 225 925 l 273 1005 b 121 841 141 1005 121 940 l 121 669 m 398 669 l 543 669 l 543 850 l 491 850 b 551 925 491 908 503 925 l 551 1005 b 398 841 419 1005 398 940 l 398 669 "},"A":{"x_min":20,"x_max":1357,"ha":1406,"o":"m 20 0 l 171 0 l 293 212 l 1083 212 l 1205 0 l 1357 0 l 771 1005 l 605 1005 l 20 0 m 1019 323 l 357 323 l 688 894 l 1019 323 "},"6":{"x_min":108.890625,"x_max":1203.21875,"ha":1339,"o":"m 562 100 b 234 295 332 100 234 100 b 540 490 234 444 269 490 l 730 490 b 1078 302 1058 490 1078 475 b 744 100 1078 100 992 100 l 562 100 m 1065 708 l 1190 708 l 1190 752 b 823 1016 1190 915 1118 1016 l 421 1016 b 108 752 288 1016 108 961 l 108 281 b 473 -11 108 9 298 -11 l 805 -11 b 1203 259 1029 -11 1203 5 l 1203 354 b 922 601 1203 526 1114 601 l 468 601 b 236 470 375 601 273 586 l 234 470 l 234 743 b 441 905 234 877 349 905 l 845 905 b 1065 769 1022 905 1065 851 l 1065 708 "},"‘":{"x_min":108.890625,"x_max":261.328125,"ha":378,"o":"m 108 669 l 253 669 l 253 850 l 201 850 b 261 925 201 908 213 925 l 261 1005 b 108 841 129 1005 108 940 l 108 669 "},"π":{"x_min":12.25,"x_max":978.640625,"ha":1031,"o":"m 966 647 l 978 733 l 261 733 b 12 693 126 733 57 718 l 29 623 b 240 647 70 638 125 647 b 110 0 231 451 175 140 l 224 0 b 356 647 287 113 345 454 l 699 647 l 699 215 b 728 0 699 81 711 20 l 841 0 b 816 231 828 40 816 97 l 816 647 l 966 647 "},"O":{"x_min":104.8125,"x_max":1374.71875,"ha":1510,"o":"m 1241 313 b 1009 100 1241 138 1137 100 l 469 100 b 238 313 341 100 238 138 l 238 691 b 469 905 238 866 341 905 l 1009 905 b 1241 691 1137 905 1241 866 l 1241 313 m 104 365 b 455 -11 104 111 189 -11 l 1023 -11 b 1374 365 1290 -11 1374 111 l 1374 640 b 1023 1016 1374 894 1290 1016 l 455 1016 b 104 640 189 1016 104 894 l 104 365 "},"n":{"x_min":110.25,"x_max":966.390625,"ha":1099,"o":"m 110 0 l 227 0 l 227 402 b 563 622 227 569 289 622 l 593 622 b 849 450 820 622 849 554 l 849 0 l 966 0 l 966 479 b 677 719 966 606 896 719 l 502 719 b 221 586 356 719 265 695 l 219 586 l 219 708 l 110 708 l 110 0 "},"3":{"x_min":96.640625,"x_max":1223.640625,"ha":1339,"o":"m 528 458 l 939 458 b 1098 283 1054 458 1098 447 b 811 101 1098 105 1067 101 l 431 101 b 221 313 238 101 221 156 l 96 313 l 96 250 b 449 -9 96 61 179 -9 l 867 -9 b 1223 283 1211 -9 1223 100 b 1053 513 1223 463 1173 498 l 1053 516 b 1207 759 1185 548 1207 575 b 869 1018 1207 940 1139 1018 l 381 1018 b 103 775 187 1018 103 936 l 103 706 l 228 706 l 228 779 b 465 906 228 872 288 906 l 846 906 b 1082 734 1049 906 1082 888 b 905 569 1082 615 1078 569 l 528 569 l 528 458 "},"9":{"x_min":108.890625,"x_max":1203.21875,"ha":1339,"o":"m 581 515 b 234 702 253 515 234 530 b 567 905 234 905 319 905 l 749 905 b 1078 709 980 905 1078 905 b 771 515 1078 561 1042 515 l 581 515 m 121 252 b 488 -11 121 90 193 -11 l 890 -11 b 1203 252 1023 -11 1203 44 l 1203 723 b 838 1016 1203 995 1014 1016 l 506 1016 b 108 745 283 1016 108 1000 l 108 651 b 389 404 108 479 197 404 l 843 404 b 1075 531 936 404 1038 419 l 1078 531 l 1078 262 b 871 100 1078 127 962 100 l 466 100 b 246 236 289 100 246 154 l 246 297 l 121 297 l 121 252 "},"l":{"x_min":126.578125,"x_max":243.640625,"ha":378,"o":"m 126 0 l 243 0 l 243 1005 l 126 1005 l 126 0 "},"¤":{"x_min":309.546875,"x_max":1003.453125,"ha":1339,"o":"m 309 219 l 378 148 l 456 227 b 656 158 509 184 580 158 b 856 227 731 158 800 183 l 934 148 l 1003 219 l 925 298 b 993 502 969 355 993 426 b 925 706 993 578 969 649 l 1003 785 l 934 856 l 856 777 b 656 846 799 821 731 846 b 455 778 581 846 512 821 l 378 856 l 309 785 l 385 707 b 319 502 343 648 319 578 b 387 298 319 426 343 355 l 309 219 m 427 502 b 656 744 427 639 521 744 b 885 502 791 744 885 639 b 656 260 885 365 791 260 b 427 502 521 260 427 365 "},"∂":{"x_min":69.421875,"x_max":871.109375,"ha":979,"o":"m 174 955 b 416 1026 220 986 300 1026 b 759 576 598 1026 759 858 b 756 500 759 555 759 522 l 755 500 b 438 679 729 545 619 679 b 69 327 238 679 69 538 b 412 -6 69 190 171 -6 b 871 566 717 -6 871 291 b 427 1111 871 906 662 1111 b 130 1025 280 1111 185 1063 l 174 955 m 420 76 b 183 333 279 76 183 195 b 458 597 183 481 310 597 b 739 405 609 597 714 472 b 423 76 713 240 598 76 l 420 76 "},"4":{"x_min":66.6875,"x_max":1223.640625,"ha":1339,"o":"m 66 211 l 933 211 l 933 0 l 1058 0 l 1058 211 l 1223 211 l 1223 322 l 1058 322 l 1058 1005 l 876 1005 l 66 369 l 66 211 m 933 322 l 191 322 l 191 325 l 933 908 l 933 322 "},"p":{"x_min":110.25,"x_max":997.703125,"ha":1099,"o":"m 880 280 b 662 86 880 116 798 86 l 454 86 b 227 283 330 86 227 113 l 227 418 b 439 622 227 540 285 622 l 672 622 b 880 419 837 622 880 556 l 880 280 m 110 -247 l 227 -247 l 227 94 l 230 94 b 434 -11 254 20 310 -11 l 657 -11 b 997 295 898 -11 997 66 l 997 420 b 676 719 997 665 842 719 l 454 719 b 221 595 351 719 255 681 l 219 595 l 219 708 l 110 708 l 110 -247 "},"‡":{"x_min":119.78125,"x_max":789.453125,"ha":928,"o":"m 400 323 l 119 323 l 119 226 l 400 226 l 400 0 l 509 0 l 509 226 l 789 226 l 789 323 l 509 323 l 509 681 l 789 681 l 789 779 l 509 779 l 509 1005 l 400 1005 l 400 779 l 119 779 l 119 681 l 400 681 l 400 323 "},"à":{"x_min":73.5,"x_max":944.609375,"ha":1063,"o":"m 827 0 l 944 0 l 944 475 b 579 719 944 686 797 719 l 394 719 b 104 537 185 719 104 666 l 104 502 l 221 502 l 221 527 b 397 622 221 586 250 622 l 568 622 b 827 477 748 622 827 605 l 827 344 l 824 344 b 577 429 784 412 729 429 l 389 429 b 73 248 185 429 73 409 l 73 201 b 296 -11 73 68 119 -11 l 577 -11 b 824 70 756 -11 793 6 l 827 70 l 827 0 m 827 190 b 533 86 827 101 745 86 l 378 86 b 190 198 217 86 190 119 l 190 220 b 383 331 190 309 232 331 l 563 331 b 827 222 743 331 827 319 l 827 190 m 544 816 l 635 816 l 434 1073 l 294 1073 l 544 816 "},"Ü":{"x_min":130.671875,"x_max":1287.609375,"ha":1447,"o":"m 130 252 b 481 -11 130 48 231 -11 l 936 -11 b 1287 252 1186 -11 1287 48 l 1287 1005 l 1154 1005 l 1154 254 b 940 100 1154 156 1121 100 l 477 100 b 264 254 296 100 264 156 l 264 1005 l 130 1005 l 130 252 m 507 1091 l 624 1091 l 624 1247 l 507 1247 l 507 1091 m 793 1091 l 910 1091 l 910 1247 l 793 1247 l 793 1091 "},"ó":{"x_min":87.109375,"x_max":1022.203125,"ha":1132,"o":"m 87 276 b 470 -11 87 43 249 -11 l 638 -11 b 1022 276 860 -11 1022 43 l 1022 431 b 638 719 1022 665 860 719 l 470 719 b 87 431 249 719 87 665 l 87 276 m 905 283 b 673 86 905 118 809 86 l 435 86 b 204 283 299 86 204 118 l 204 425 b 435 622 204 590 299 622 l 673 622 b 905 425 809 622 905 590 l 905 283 m 441 816 l 532 816 l 782 1073 l 642 1073 l 441 816 "},"√":{"x_min":56,"x_max":995,"ha":1000,"o":"m 995 1166 l 906 1166 l 571 -33 b 548 -119 564 -61 555 -92 l 547 -119 b 518 -36 537 -89 528 -61 l 277 546 l 56 456 l 81 394 l 211 444 l 496 -217 l 600 -217 l 995 1166 "}}}
